<svg width="139" height="43" viewBox="0 0 139 43" fill="none" xmlns="http://www.w3.org/2000/svg">
<g clip-path="url(#clip0)">
<path d="M16.86 0.880005L10.89 1.76L0 21.08L10.89 40.4L16.86 41.28L5.27 21.08L16.86 0.880005ZM32.16 0.880005L38.13 1.76L49.02 21.08L38.13 40.39L32.16 41.27L43.75 21.07L32.16 0.880005Z" fill="black"/>
<path d="M16.86 0.88L24.51 0V21.08H5.27002L16.86 0.88Z" fill="#F3F3F3"/>
<path d="M16.86 41.27L24.51 42.15V21.08H5.27002L16.86 41.27Z" fill="#D9D9D9"/>
<path d="M32.1598 41.27L24.5098 42.15V21.08H43.7498L32.1598 41.27Z" fill="#BCBCBC"/>
<path d="M32.1598 0.88L24.5098 0V21.08H43.7498L32.1598 0.88Z" fill="#E9E9E9"/>
<path d="M137.6 31.74V36.12C137.63 36.46 137.68 36.69 137.77 36.83C137.85 36.96 138.03 37.06 138.3 37.11L138.22 39.24C137.5 39.24 136.93 39.19 136.5 39.09C136.07 38.99 135.64 38.79 135.2 38.5C134.19 38.99 133.16 39.24 132.1 39.24C129.92 39.24 128.83 38.09 128.83 35.78C128.83 34.66 129.13 33.86 129.74 33.39C130.34 32.92 131.27 32.64 132.52 32.56L134.77 32.39V31.74C134.77 31.3 134.67 31.01 134.48 30.84C134.28 30.68 133.97 30.6 133.53 30.6L129.57 30.77L129.49 28.81C130.99 28.4 132.42 28.2 133.78 28.2C135.14 28.2 136.11 28.48 136.71 29.04C137.3 29.6 137.6 30.5 137.6 31.74ZM73.3401 29.64C74.0801 28.68 75.3301 28.2 77.0701 28.2C78.8101 28.2 80.0601 28.68 80.8001 29.64C81.5401 30.6 81.9201 31.96 81.9201 33.7C81.9201 37.4 80.3001 39.24 77.0701 39.24C73.8401 39.24 72.2201 37.39 72.2201 33.7C72.2301 31.96 72.6001 30.61 73.3401 29.64ZM109.74 31.74V36.12C109.77 36.46 109.82 36.69 109.91 36.83C109.99 36.96 110.17 37.06 110.44 37.11L110.36 39.24C109.64 39.24 109.07 39.19 108.64 39.09C108.21 38.99 107.78 38.79 107.34 38.5C106.33 38.99 105.3 39.24 104.24 39.24C102.06 39.24 100.97 38.09 100.97 35.78C100.97 34.66 101.27 33.86 101.88 33.39C102.48 32.92 103.41 32.64 104.66 32.56L106.91 32.39V31.74C106.91 31.3 106.81 31.01 106.61 30.84C106.41 30.68 106.1 30.6 105.66 30.6L101.7 30.77L101.62 28.81C103.12 28.4 104.55 28.2 105.91 28.2C107.27 28.2 108.24 28.48 108.84 29.04C109.44 29.6 109.74 30.5 109.74 31.74ZM86.8101 38.99H83.9901V28.45H86.7901V29.04C87.7601 28.48 88.5901 28.2 89.2801 28.2C90.4201 28.2 91.3001 28.53 91.9101 29.19C93.2001 28.53 94.3801 28.2 95.4501 28.2C96.8401 28.2 97.8101 28.6 98.3501 29.41C98.8901 30.22 99.1601 31.51 99.1601 33.28V38.99H96.3401V33.36C96.3401 32.46 96.2401 31.8 96.0501 31.37C95.8501 30.94 95.4601 30.73 94.8701 30.73C94.4201 30.73 93.8701 30.83 93.2301 31.02L92.9101 31.13C92.9701 32.18 92.9901 32.98 92.9901 33.53V38.99H90.1701V33.57C90.1701 32.53 90.0801 31.8 89.9001 31.37C89.7201 30.94 89.3201 30.73 88.7001 30.73C88.1501 30.73 87.6101 30.83 87.0801 31.02L86.8301 31.11V38.99H86.8101ZM115.26 38.99H112.44V28.45H115.24V29.04C116.2 28.48 117.07 28.2 117.87 28.2C119.27 28.2 120.24 28.61 120.78 29.44C121.31 30.27 121.58 31.55 121.58 33.28V38.99H118.76V33.36C118.76 32.46 118.65 31.8 118.44 31.37C118.23 30.94 117.81 30.73 117.18 30.73C116.6 30.73 116.05 30.83 115.52 31.02L115.27 31.11V38.99H115.26ZM124.09 38.99V28.45H126.91V38.99H124.09V38.99ZM63.0401 34.18V38.98H60.1301V24.66H65.6901C69.0601 24.66 70.7501 26.23 70.7501 29.38C70.7501 31.25 70.0501 32.63 68.6401 33.51L70.6801 38.99H67.5001L65.8401 34.19H63.0401V34.18ZM105 34.52C104.21 34.59 103.82 35.01 103.82 35.78C103.82 36.55 104.16 36.94 104.85 36.94C105.38 36.94 105.97 36.86 106.6 36.69L106.92 36.61V34.35L105 34.52ZM132.86 34.52C132.07 34.59 131.68 35.01 131.68 35.78C131.68 36.55 132.02 36.94 132.71 36.94C133.24 36.94 133.83 36.86 134.46 36.69L134.78 36.61V34.35L132.86 34.52ZM75.5301 36.08C75.8201 36.59 76.3301 36.84 77.0801 36.84C77.8301 36.84 78.3401 36.59 78.6301 36.08C78.9201 35.57 79.0601 34.78 79.0601 33.7C79.0601 32.62 78.9201 31.83 78.6301 31.34C78.3401 30.85 77.8301 30.6 77.0801 30.6C76.3401 30.6 75.8201 30.85 75.5301 31.34C75.2401 31.83 75.1001 32.62 75.1001 33.7C75.1001 34.78 75.2401 35.58 75.5301 36.08ZM67.2701 31.07C67.6101 30.65 67.7801 30.09 67.7801 29.41C67.7801 28.72 67.6001 28.17 67.2401 27.77C66.8801 27.36 66.3601 27.16 65.6901 27.16H63.0301V31.71H65.7301C66.4301 31.7 66.9401 31.49 67.2701 31.07ZM124.09 27.1V24.24H126.91V27.1H124.09ZM69.2101 17.68C67.7201 18 66.3801 18.16 65.1901 18.16C64.0001 18.16 63.0401 18.01 62.3201 17.72C61.6001 17.43 61.0401 16.95 60.6301 16.31C60.2201 15.66 59.9401 14.91 59.7901 14.03C59.6401 13.16 59.5601 12.06 59.5601 10.74C59.5601 7.97003 59.9501 6.04003 60.7301 4.95003C61.5101 3.86003 62.9501 3.32003 65.0401 3.32003C66.2501 3.32003 67.6501 3.51003 69.2301 3.89003L69.1501 6.21003C67.7601 6.01003 66.6001 5.90003 65.6801 5.90003C64.7601 5.90003 64.1001 6.02003 63.7101 6.27003C63.3201 6.52003 63.0301 6.98003 62.8301 7.67003C62.6401 8.36003 62.5501 9.53003 62.5501 11.19C62.5501 12.85 62.7401 14 63.1301 14.64C63.5201 15.28 64.2901 15.6 65.4501 15.6C66.6101 15.6 67.8401 15.5 69.1501 15.31L69.2101 17.68ZM96.7701 15.25C97.1001 15.54 97.5801 15.68 98.1901 15.68C99.5001 15.68 100.66 15.64 101.69 15.55L102.28 15.49L102.32 17.58C100.7 17.97 99.2401 18.17 97.9401 18.17C96.3501 18.17 95.2001 17.75 94.4801 16.91C93.7601 16.07 93.4101 14.7 93.4101 12.8C93.4101 9.02003 94.9601 7.13003 98.0701 7.13003C101.13 7.13003 102.66 8.72003 102.66 11.89L102.45 13.85H96.2501C96.2701 14.49 96.4401 14.96 96.7701 15.25ZM71.7201 8.57003C72.4601 7.61003 73.7101 7.13003 75.4501 7.13003C77.1901 7.13003 78.4401 7.61003 79.1801 8.57003C79.9201 9.53003 80.3001 10.88 80.3001 12.63C80.3001 16.33 78.6801 18.17 75.4501 18.17C72.2201 18.17 70.6001 16.32 70.6001 12.63C70.6001 10.88 70.9801 9.53003 71.7201 8.57003ZM91.3201 3.16003V17.91H88.5201V17.47C87.5401 17.93 86.6901 18.16 85.9701 18.16C84.4401 18.16 83.3701 17.72 82.7701 16.83C82.1701 15.94 81.8601 14.54 81.8601 12.63C81.8601 10.71 82.2201 9.31003 82.9501 8.44003C83.6701 7.56003 84.7701 7.12003 86.2301 7.12003C86.6801 7.12003 87.3001 7.19003 88.1101 7.33003L88.5101 7.41003V3.16003H91.3201ZM117.33 8.57003C118.07 7.61003 119.32 7.13003 121.06 7.13003C122.8 7.13003 124.05 7.61003 124.79 8.57003C125.53 9.53003 125.91 10.88 125.91 12.63C125.91 16.33 124.3 18.17 121.06 18.17C117.83 18.17 116.21 16.32 116.21 12.63C116.21 10.88 116.58 9.53003 117.33 8.57003ZM127.97 17.91V7.38003H130.77V8.50003C131.95 7.80003 133.07 7.34003 134.14 7.13003V9.98003C133 10.22 132.02 10.46 131.21 10.72L130.79 10.87V17.93H127.97V17.91ZM112.65 9.78003V17.91H109.83V9.78003H108.69V7.38003H109.83V6.91003C109.83 5.39003 110.05 4.35003 110.5 3.77003C110.95 3.19003 111.75 2.91003 112.9 2.91003C113.41 2.91003 114.06 2.98003 114.86 3.12003L115.3 3.18003L115.26 5.48003C114.64 5.45003 114.12 5.44003 113.7 5.44003C113.28 5.44003 113 5.55003 112.86 5.78003C112.72 6.01003 112.65 6.39003 112.65 6.94003V7.38003H115.2V9.78003H112.65V9.78003ZM119.51 15.01C119.8 15.52 120.31 15.77 121.06 15.77C121.81 15.77 122.32 15.52 122.61 15.01C122.9 14.5 123.04 13.71 123.04 12.63C123.04 11.55 122.9 10.76 122.61 10.27C122.32 9.78003 121.81 9.53003 121.06 9.53003C120.31 9.53003 119.8 9.78003 119.51 10.27C119.22 10.76 119.08 11.55 119.08 12.63C119.08 13.71 119.22 14.5 119.51 15.01ZM73.9001 15.01C74.1901 15.52 74.7001 15.77 75.4501 15.77C76.2001 15.77 76.7101 15.52 77.0001 15.01C77.2901 14.5 77.4301 13.71 77.4301 12.63C77.4301 11.55 77.2901 10.76 77.0001 10.27C76.7101 9.78003 76.2001 9.53003 75.4501 9.53003C74.7101 9.53003 74.1901 9.78003 73.9001 10.27C73.6101 10.76 73.4701 11.55 73.4701 12.63C73.4701 13.71 73.6101 14.5 73.9001 15.01ZM88.2001 15.38L88.5001 15.32V9.78003C87.7301 9.64003 87.0401 9.57003 86.4301 9.57003C85.2901 9.57003 84.7201 10.58 84.7201 12.6C84.7201 13.7 84.8501 14.48 85.1001 14.94C85.3501 15.4 85.7701 15.64 86.3501 15.64C86.9301 15.64 87.5601 15.55 88.2001 15.38ZM99.8801 11.7C99.8801 10.86 99.7501 10.27 99.4801 9.94003C99.2101 9.61003 98.7501 9.45003 98.0801 9.45003C97.4101 9.45003 96.9401 9.62003 96.6701 9.97003C96.4001 10.31 96.2501 10.89 96.2401 11.71H99.8801V11.7Z" fill="black"/>
</g>
<defs>
<clipPath id="clip0">
<rect width="138.3" height="42.15" fill="white"/>
</clipPath>
</defs>
</svg>
