<svg enable-background="new 0 0 86.68 100" height="48" viewBox="0 0 86.68 100" width="48" xmlns="http://www.w3.org/2000/svg"><path d="m43.34 0c-23.9 0-43.34 18.66-43.34 41.59 0 31.12 39.77 56.79 41.46 57.86.57.37 1.23.55 1.88.55s1.31-.18 1.88-.55c1.69-1.08 41.46-26.74 41.46-57.86 0-22.93-19.44-41.59-43.34-41.59zm0 92.26c-7.7-5.36-36.33-26.91-36.33-50.67 0-19.07 16.3-34.58 36.33-34.58s36.33 15.51 36.33 34.58c0 23.73-28.64 45.31-36.33 50.67z" fill="#342245"/><path d="m7.01 41.59c0 23.76 28.63 45.32 36.33 50.67 7.69-5.37 36.33-26.95 36.33-50.67 0-19.07-16.3-34.58-36.33-34.58s-36.33 15.51-36.33 34.58z" fill="#e9bf1e"/><g fill="#342245"><path d="m43.34 32.33-18.32 15.1c0 .02-.01.05-.02.1-.01.04-.02.07-.02.1v15.29c0 .55.2 1.03.61 1.43.4.4.88.61 1.43.61h12.23v-12.24h8.16v12.23h12.23c.55 0 1.03-.2 1.43-.61.4-.4.61-.88.61-1.43v-15.29c0-.08-.01-.15-.03-.19z"/><path d="m68.67 40.57-6.98-5.8v-13c0-.3-.1-.54-.29-.73s-.43-.29-.73-.29h-6.12c-.3 0-.54.1-.73.29s-.29.44-.29.73v6.21l-7.77-6.5c-.68-.55-1.49-.83-2.42-.83s-1.74.28-2.42.83l-22.91 19.09c-.21.17-.33.4-.35.68-.02.29.05.54.22.75l1.98 2.36c.17.19.39.31.67.35.25.02.51-.05.76-.22l22.05-18.39 22.05 18.38c.17.15.39.22.67.22h.1c.28-.04.5-.16.67-.35l1.97-2.35c.17-.21.24-.46.22-.75s-.14-.51-.35-.68z"/></g></svg>