<svg version="1.1" xmlns="http://www.w3.org/2000/svg" xmlns:xlink="http://www.w3.org/1999/xlink" x="0px" y="0px" width="48" height="48" viewBox="0 0 86.68 100" style="enable-background:new 0 0 86.68 100;" xml:space="preserve"><style type="text/css">.st0{fill:#342245;}.st1{fill:#E9BF1E;}</style><g><g><g><g><path class="st0" d="M43.34,0C19.44,0,0,18.66,0,41.59c0,31.12,39.77,56.79,41.46,57.86c0.57,0.37,1.23,0.55,1.88,0.55 c0.65,0,1.31-0.18,1.88-0.55c1.69-1.08,41.46-26.74,41.46-57.86C86.68,18.66,67.24,0,43.34,0z M43.34,92.26 C35.64,86.9,7.01,65.35,7.01,41.59c0-19.07,16.3-34.58,36.33-34.58s36.33,15.51,36.33,34.58C79.67,65.32,51.03,86.9,43.34,92.26 z"/></g></g></g><path class="st1" d="M7.01,41.59c0,23.76,28.63,45.32,36.33,50.67c7.69-5.37,36.33-26.95,36.33-50.67 c0-19.07-16.3-34.58-36.33-34.58S7.01,22.52,7.01,41.59z"/><g><g><g><path class="st0" d="M43.34,32.33l-18.32,15.1c0,0.02-0.01,0.05-0.02,0.1c-0.01,0.04-0.02,0.07-0.02,0.1v15.29 c0,0.55,0.2,1.03,0.61,1.43c0.4,0.4,0.88,0.61,1.43,0.61h12.23V52.72h8.16v12.23h12.23c0.55,0,1.03-0.2,1.43-0.61 c0.4-0.4,0.61-0.88,0.61-1.43V47.62c0-0.08-0.01-0.15-0.03-0.19L43.34,32.33z"/><path class="st0" d="M68.67,40.57l-6.98-5.8v-13c0-0.3-0.1-0.54-0.29-0.73c-0.19-0.19-0.43-0.29-0.73-0.29h-6.12 c-0.3,0-0.54,0.1-0.73,0.29c-0.19,0.19-0.29,0.44-0.29,0.73v6.21l-7.77-6.5c-0.68-0.55-1.49-0.83-2.42-0.83 c-0.93,0-1.74,0.28-2.42,0.83L18.01,40.57c-0.21,0.17-0.33,0.4-0.35,0.68c-0.02,0.29,0.05,0.54,0.22,0.75l1.98,2.36 c0.17,0.19,0.39,0.31,0.67,0.35c0.25,0.02,0.51-0.05,0.76-0.22L43.34,26.1l22.05,18.38c0.17,0.15,0.39,0.22,0.67,0.22h0.1 c0.28-0.04,0.5-0.16,0.67-0.35L68.8,42c0.17-0.21,0.24-0.46,0.22-0.75C69,40.96,68.88,40.74,68.67,40.57z"/></g></g></g></g></svg>