<svg version="1.1" id="Layer_1" xmlns="http://www.w3.org/2000/svg" x="0px" y="0px" viewBox="0 0 336.9 184.4" xml:space="preserve"><style>.st0{fill:#ffcb01}</style><path class="st0" d="M27.2 157.5l-11.7 26.6h-3.8L0 157.5h4.1l9.6 21.9 9.7-21.9h3.8zM40.5 182.6c-2.2-1.2-3.9-2.8-5.1-4.9-1.2-2.1-1.8-4.4-1.8-7 0-2.6.6-4.9 1.8-7 1.2-2.1 2.9-3.7 5.1-4.9 2.2-1.2 4.6-1.8 7.3-1.8s5.1.6 7.2 1.8c2.2 1.2 3.8 2.8 5.1 4.9 1.2 2.1 1.8 4.4 1.8 7s-.6 4.9-1.8 7c-1.2 2.1-2.9 3.7-5.1 4.9-2.2 1.2-4.6 1.8-7.2 1.8-2.8 0-5.2-.6-7.3-1.8zm12.5-2.9c1.6-.9 2.8-2.1 3.7-3.7.9-1.6 1.4-3.3 1.4-5.2 0-1.9-.5-3.7-1.4-5.2-.9-1.6-2.1-2.8-3.7-3.7-1.6-.9-3.3-1.3-5.3-1.3s-3.7.4-5.3 1.3c-1.6.9-2.8 2.1-3.7 3.7-.9 1.6-1.4 3.3-1.4 5.2 0 1.9.5 3.7 1.4 5.2.9 1.6 2.1 2.8 3.7 3.7 1.6.9 3.4 1.3 5.3 1.3 2 0 3.7-.4 5.3-1.3zM77.5 160.8h-9.1v-3.3h22v3.3h-9.1v23.3h-3.8v-23.3zM99.1 157.5h11.2c2.8 0 5.3.6 7.5 1.7s3.9 2.7 5.1 4.7c1.2 2 1.8 4.3 1.8 6.9s-.6 4.9-1.8 6.9c-1.2 2-2.9 3.6-5.1 4.7-2.2 1.1-4.7 1.7-7.5 1.7H99.1v-26.6zm11 23.3c2.2 0 4.1-.4 5.7-1.3 1.6-.8 2.9-2 3.8-3.5s1.3-3.3 1.3-5.2-.4-3.7-1.3-5.2-2.2-2.7-3.8-3.5c-1.6-.8-3.5-1.3-5.7-1.3H103v20h7.1zM135.2 157.5h3.8v26.6h-3.8v-26.6zM168.5 177.4h-14.2l-2.9 6.7h-3.9l12.1-26.6h3.8l12.1 26.6h-4l-3-6.7zm-1.3-3l-5.7-13.1-5.7 13.1h11.4zM185.9 183.5c-1.9-.6-3.3-1.4-4.4-2.4l1.4-3c1 .9 2.3 1.7 3.9 2.2 1.6.6 3.2.9 4.9.9 2.2 0 3.9-.4 4.9-1.1 1.1-.7 1.6-1.7 1.6-3 0-.9-.3-1.7-.9-2.2-.6-.6-1.3-1-2.2-1.3-.9-.3-2.1-.6-3.7-1-2-.5-3.6-1-4.9-1.4-1.2-.5-2.3-1.2-3.2-2.2-.9-1-1.3-2.4-1.3-4.1 0-1.4.4-2.7 1.1-3.8.7-1.1 1.9-2.1 3.4-2.7 1.5-.7 3.4-1 5.7-1 1.6 0 3.1.2 4.6.6s2.8 1 3.9 1.8l-1.3 3c-1.1-.7-2.3-1.2-3.6-1.6-1.3-.4-2.5-.6-3.7-.6-2.2 0-3.8.4-4.9 1.2-1.1.8-1.6 1.8-1.6 3 0 .9.3 1.7.9 2.2.6.6 1.4 1 2.3 1.3.9.3 2.1.7 3.7 1 2 .5 3.6 1 4.8 1.4 1.2.5 2.3 1.2 3.1 2.2.9 1 1.3 2.3 1.3 4 0 1.4-.4 2.7-1.1 3.8-.8 1.2-1.9 2.1-3.5 2.7-1.5.7-3.5 1-5.7 1-1.7 0-3.6-.3-5.5-.9zM230.7 159.9c2 1.6 3 3.9 3 6.8s-1 5.2-3 6.8-4.7 2.5-8.1 2.5H216v8.1h-3.8v-26.6h10.4c3.4 0 6.1.8 8.1 2.4zm-2.8 11.3c1.3-1 1.9-2.5 1.9-4.4s-.6-3.4-1.9-4.4c-1.3-1-3.1-1.5-5.5-1.5H216v12h6.5c2.3-.2 4.2-.7 5.4-1.7zM249 182.6c-2.2-1.2-3.9-2.8-5.1-4.9-1.2-2.1-1.8-4.4-1.8-7 0-2.6.6-4.9 1.8-7 1.2-2.1 2.9-3.7 5.1-4.9 2.2-1.2 4.6-1.8 7.3-1.8s5.1.6 7.2 1.8c2.2 1.2 3.8 2.8 5.1 4.9 1.2 2.1 1.8 4.4 1.8 7s-.6 4.9-1.8 7-2.9 3.7-5.1 4.9c-2.2 1.2-4.6 1.8-7.2 1.8-2.8 0-5.2-.6-7.3-1.8zm12.5-2.9c1.6-.9 2.8-2.1 3.7-3.7.9-1.6 1.4-3.3 1.4-5.2 0-1.9-.5-3.7-1.4-5.2-.9-1.6-2.1-2.8-3.7-3.7-1.6-.9-3.3-1.3-5.3-1.3s-3.7.4-5.3 1.3c-1.6.9-2.8 2.1-3.7 3.7-.9 1.6-1.4 3.3-1.4 5.2 0 1.9.5 3.7 1.4 5.2.9 1.6 2.1 2.8 3.7 3.7 1.6.9 3.4 1.3 5.3 1.3s3.7-.4 5.3-1.3zM298.5 184.1l-5.7-8.2c-.7.1-1.3.1-1.7.1h-6.6v8.1h-3.8v-26.6h10.4c3.5 0 6.2.8 8.1 2.5s3 3.9 3 6.8c0 2.1-.5 3.8-1.5 5.3-1 1.4-2.5 2.5-4.3 3.2l6.3 8.9h-4.2zm-2-12.9c1.3-1 1.9-2.5 1.9-4.5s-.6-3.4-1.9-4.4c-1.3-1-3.1-1.5-5.5-1.5h-6.5v12h6.5c2.4 0 4.3-.6 5.5-1.6zM329.9 177.4h-14.2l-2.9 6.7h-3.9l12.1-26.6h3.8l12.1 26.6h-4l-3-6.7zm-1.3-3l-5.7-13.1-5.7 13.1h11.4zM120.9 135L43 0h155.7l-77.8 135zM49.1 3.5L120.9 128 192.7 3.5H49.1zM292 135H136.3L214.2 0 292 135zm-149.6-3.5H286L214.2 7l-71.8 124.5z"/></svg>