<?xml version="1.0" encoding="UTF-8"?>
<svg xmlns="http://www.w3.org/2000/svg" version="1.1" viewBox="0 0 396.9 85">
  <defs>
    <style>
      .cls-1 {
        fill: #58595b;
      }

      .cls-2, .cls-3 {
        fill-rule: evenodd;
      }

      .cls-2, .cls-4 {
        fill: #fff;
      }

      .cls-3 {
        fill: #002b80;
      }
    </style>
  </defs>
  <!-- Generator: Adobe Illustrator 28.6.0, SVG Export Plug-In . SVG Version: 1.2.0 Build 709)  -->
  <g>
    <g id="Layer_1">
      <g>
        <path class="cls-2" d="M68.5,24.2c10.1,15.1,6,35.7-9.1,45.8-15.1,10.1-35.7,6-45.8-9.1C3.6,45.8,7.6,25.2,22.7,15.1c15.1-10.1,35.7-6,45.8,9.1"/>
        <path class="cls-3" d="M67.9,24.7c9.9,14.7,5.9,34.8-8.9,44.7-14.7,9.9-34.8,5.9-44.7-8.9-9.9-14.7-5.9-34.8,8.9-44.7,14.7-9.9,34.8-5.9,44.7,8.9"/>
        <path class="cls-2" d="M58,67.9h0c-14,9.4-32.9,5.6-42.3-8.4-9.4-14-5.6-32.9,8.4-42.3,14-9.4,32.9-5.6,42.3,8.4,9.4,14,5.6,32.9-8.4,42.3M67.1,25.1c-9.6-14.3-29.1-18.2-43.5-8.6-14.3,9.6-18.2,29.1-8.6,43.5,9.6,14.3,29.1,18.2,43.5,8.6,14.3-9.6,18.2-29.1,8.6-43.5Z"/>
        <path class="cls-2" d="M51.6,58.2h0c-8.7,5.8-20.4,3.5-26.2-5.2-5.8-8.7-3.5-20.4,5.2-26.2,8.7-5.8,20.4-3.5,26.2,5.2,5.8,8.7,3.5,20.4-5.2,26.2M57.5,31.5c-6.1-9.1-18.4-11.5-27.4-5.4-9.1,6.1-11.5,18.4-5.4,27.4,6.1,9.1,18.4,11.5,27.4,5.4,9.1-6.1,11.5-18.4,5.4-27.4Z"/>
        <path class="cls-2" d="M15.9,41.3c.7,0,1.2.5,1.2,1.2s-.5,1.2-1.2,1.2-1.2-.5-1.2-1.2.5-1.2,1.2-1.2"/>
        <path class="cls-2" d="M66.3,41.3c.7,0,1.2.5,1.2,1.2s-.5,1.2-1.2,1.2-1.2-.5-1.2-1.2.5-1.2,1.2-1.2"/>
        <path class="cls-4" d="M21.7,32.1c.2-.5.4-.9.5-1.4l-1.2-.6c-.2-.1-.3-.1-.5,0l-.3.5-.5-.3,1.1-2.1.5.3v.4c-.2.2-.1.3,0,.4l1.5.8c0,.6,0,1.5-.6,2.4-1,1.9-2.5,2-4.5,1-1.8-1-2.9-2.6-1.8-4.6.3-.6.6-1.2,1.6-1.8l1.4.9-.3.6-1.1-.3c-.4.3-.7.6-1,1.2-.4.7-.3,1.1-.2,1.5.1.5,1.2,1.2,1.9,1.6,1.4.8,2.9.8,3.6-.6"/>
        <path class="cls-4" d="M26.5,23.7c1.2,1.3.7,2.7-.2,3.5-1.1,1.1-2.3,1-3.4,0l-2.6-2.7c-.2-.2-.3-.2-.5,0l-.4.3-.4-.4,1.8-1.7.4.4-.3.4c-.2.2-.1.3,0,.5l2.5,2.6c1,1,1.9.6,2.5,0,.3-.3.5-.7.5-1,0-.3-.2-.7-.8-1.3l-2.5-2.5c-.2-.2-.3-.2-.5,0l-.4.3-.4-.4,1.7-1.7.4.4-.3.4c-.2.2-.1.3,0,.5l2.6,2.7Z"/>
        <path class="cls-4" d="M32.3,23l-.7.3-4.6-4.5c-.3-.3-.5-.2-.7-.1h-.3c0,.1-.3-.4-.3-.4l2.4-1.2.2.5-.4.3c-.2.1-.2.2-.2.3,0,0,0,.1.1.2l3.6,3.6-.8-5c0,0,0-.2,0-.2,0-.1-.2-.1-.4,0l-.5.2-.2-.5,2.2-1.1.3.5-.3.2c-.2.1-.3.2-.2.6l.9,6.3Z"/>
        <path class="cls-4" d="M35.4,21.7v-.6c0,0,.4-.2.4-.2.2,0,.3-.2.2-.4l-.8-5c0-.2,0-.4-.3-.3h-.5s0-.5,0-.5l5-.8.2,1.7h-.6c0,0-.2-.6-.2-.6,0-.2-.2-.3-.4-.2l-2.3.3.4,2.3,2.3-.3v.7c.1,0-2.2.4-2.2.4l.4,2.6,2.3-.3c.2,0,.3,0,.3-.3v-.7c0,0,.6-.1.6-.1l.3,1.7-5.1.8Z"/>
        <path class="cls-4" d="M43.7,17.3h.9c.4.2.7.2,1,0,.3-.2.5-.4.5-1,.1-.9-.4-1.3-1.3-1.4h-.7c0-.1-.3,2.4-.3,2.4ZM43.3,20.1c0,.2,0,.3.2.4l.6.2v.6c0,0-2.7-.4-2.7-.4v-.6c0,0,.6,0,.6,0,.2,0,.3,0,.3-.3l.7-5c0-.2,0-.3-.2-.4l-.5-.2v-.6c0,0,2.7.4,2.7.4,1.3.2,2.2.7,2,2.1-.2,1.4-1.4,1.7-2,1.7.2,0,.4.4.6.7l.8,1.8c.2.4.5.6.7.6.1,0,.3,0,.4,0v.5c-.2,0-.5.2-.9,0-.5,0-.8-.5-1-1l-1-2.3c-.1-.2-.2-.4-.5-.5h-.4s-.3,2.1-.3,2.1Z"/>
        <path class="cls-4" d="M50.3,21.9c-.1.2-.1.3,0,.5l.4.3-.3.5-2.2-1.2.3-.5.5.2c.2,0,.3,0,.4-.2l2.4-4.4c.1-.2.1-.3,0-.5l-.4-.3.3-.5,1.5.8.5,6.6,2.2-4c.1-.2.1-.3,0-.5l-.4-.3.3-.5,2.1,1.2-.3.5-.5-.2c-.2,0-.3,0-.4.2l-2.9,5.3-.8-.4-.4-6.6-2.2,4Z"/>
        <path class="cls-4" d="M59.9,27.9c-1.3,1.2-2.7.7-3.5-.2-1.1-1.1-1-2.3,0-3.4l2.7-2.6c.2-.2.2-.3,0-.5l-.3-.4.4-.4,1.7,1.8-.4.4-.4-.3c-.2-.2-.3-.1-.5,0l-2.6,2.5c-1,1-.6,1.9,0,2.5.3.3.7.5,1,.5.3,0,.7-.2,1.3-.8l2.6-2.4c.2-.2.2-.3,0-.5l-.3-.4.4-.4,1.7,1.8-.4.4-.4-.3c-.2-.1-.3-.1-.5,0l-2.7,2.6Z"/>
        <path class="cls-4" d="M59.2,30.9l.5-.3.3.4c.1.2.2.2.5,0l4.5-2.3c.2-.1.3-.2.2-.4l-.2-.5.5-.3,1.1,2.3-.5.3-.3-.5c-.1-.2-.2-.2-.5,0l-4.8,2.4.9,1.8c.1.2.2.3.4.2l.7-.3.3.6-1.5.8-2.2-4.3Z"/>
        <path class="cls-4" d="M18.4,52.3h0l.4.8c.2.3.3.6.7.8.3.2.6.1,1.2-.1.8-.4.8-1.1.4-1.9l-.3-.7-2.3,1.1ZM15.7,53.6c-.2.1-.3.2-.2.4l.2.6-.5.3-1.2-2.4.5-.3.3.4c.1.2.2.2.5,0l4.7-2.2c.2-.1.3-.2.2-.4v-.5c-.1,0,.4-.3.4-.3l1.2,2.4c.6,1.3.6,2.3-.6,2.9-1.3.6-2.2-.3-2.6-.8,0,.2,0,.6-.3.9l-1.1,1.8c-.3.4-.2.7-.1,1,0,.1.2.2.2.3l-.5.2c0,0-.4-.2-.5-.6-.2-.5,0-1,.3-1.4l1.4-2.2c.1-.2.2-.5,0-.7l-.2-.3-2,1Z"/>
        <path class="cls-4" d="M24,57.4h0c-.5,0-1.5.7-2.2,1.4-1.3,1.3-1.5,2.7-.4,3.8.5.5.9.7,1.5.7.5,0,1.5-.7,2.2-1.4,1.3-1.3,1.5-2.7.4-3.8-.5-.5-.9-.7-1.5-.7M20.6,62.8c-1.5-1.5-1-3.2.5-4.8,1.4-1.4,3.3-2,5.1-.2,1.5,1.5,1,3.2-.5,4.8-1.4,1.4-3.3,2-5.1.2Z"/>
        <path class="cls-4" d="M26.4,67.6l.2-.6h.5c.3.2.3.1.4-.1l2.3-4.8c0-.2,0-.3-.2-.4l-.5-.3.2-.6,1.9.8-.3,6.3,3.9-4.9,2,.8-.2.6-.5-.2c-.2,0-.3,0-.4.2l-1.6,5c0,.2,0,.3.1.5l.5.3-.2.6-2.4-1,.2-.6h.5c.2.2.3.1.4,0l1.6-5-4.1,5.1-.7-.3.3-6.6-2.2,4.7c0,.2,0,.3.2.4l.5.3-.2.6-2.2-.9Z"/>
        <path class="cls-4" d="M40.9,64.8h0v.5c-.1,0-1.1,2.9-1.1,2.9h2.2s-1-2.9-1-2.9v-.5ZM41.4,62.7h0l1.2,1.1-.4.3-1.2-.9-1.1.9-.4-.3,1.2-1.1h.8ZM40.6,63.9h.9s2.2,6.2,2.2,6.2c.1.4.2.4.5.5h.4c0,0,0,.7,0,.7h-2.6s0-.6,0-.6h.6c.2-.1.3-.2.3-.3s0-.1,0-.2l-.5-1.3h-2.7s-.4,1.3-.4,1.3c0,0,0,.1,0,.2,0,.2,0,.2.3.3h.6c0,0,0,.7,0,.7h-2.4s0-.6,0-.6h.4c.3-.1.4-.2.5-.5l2.1-6.2Z"/>
        <path class="cls-4" d="M49.7,68.8c0,.2.2.3.4.3h.5c0-.1.2.4.2.4l-2.4.9-.2-.6.5-.3c.2-.1.2-.2.1-.5l-1.9-4.8c0-.2-.2-.3-.4-.3h-.5c0,.1-.2-.4-.2-.4l1.6-.6,5.5,4-1.7-4.3c0-.2-.2-.3-.4-.3h-.5c0,.1-.2-.4-.2-.4l2.3-.9.2.6-.5.2c-.2.1-.2.3-.1.5l2.3,5.8-.8.3-5.5-4,1.7,4.3Z"/>
        <path class="cls-4" d="M60,64.2l-2,1.6-.4-.5.4-.4c.2-.2.1-.3,0-.5l-3.2-4c-.2-.2-.3-.2-.5-.1l-.5.3-.4-.5,2-1.6.4.5-.4.4c-.2.2-.2.3,0,.5l3.2,4c.2.2.2.2.5.1l.5-.3.4.5Z"/>
        <path class="cls-4" d="M62.7,61.7l-.5-.4.2-.5c.1-.2,0-.3-.1-.5l-4.2-3.1c-.2-.2-.3-.2-.5,0l-.4.4-.5-.3,3.1-4.2,1.4,1.1-.4.5-.6-.4c-.2-.1-.3,0-.5.1l-1.4,1.9,1.9,1.4,1.4-1.9.6.4-1.4,1.9,2.2,1.6,1.4-1.9c.1-.2.2-.3,0-.5l-.6-.5.4-.6,1.5,1-3.1,4.2Z"/>
        <path class="cls-4" d="M68.3,52l-.9,2.4-.6-.2v-.5c.2-.3.1-.3-.1-.4l-4.8-1.9c-.2,0-.3,0-.5.1l-.3.5-.6-.2.9-2.4.6.2v.5c-.2.2-.1.3.1.4l4.8,1.9c.2,0,.3,0,.5-.1l.3-.5.6.2Z"/>
        <path class="cls-2" d="M43.6,43h0s0,0,0,0h0s0,0,0,0h0s0,0,0,0h0c0,0,0,0,0,0h0c0,0,0,0,0,0h0c0,0,0,0,0,0h0c0,0,0-.1,0-.1h0s0-.1,0-.1h0c0-.1,0-.1,0-.1h0c0,0,0,0,0,0h0c0,0,0,0,0,0h0s0,0,0,0h0s0,0,0,0h0s0,0,0,0h0s0,0,0,0h0ZM45.6,43h0c0,.2-.5.2-.6-.1,0-.4.6-.4.6-.2-.2,0-.3,0-.3.2,0,.1,0,.2.3.1ZM35.2,42.4h5.9s0-5.5,0-5.5h6v5.5s-5.8,0-5.8,0h0c.3,1.1.6,2.1.9,2.9h1.9v-.3c0,.1-.2.1-.3,0-.1.1-.2,0-.3,0-.1.1-.3,0-.3,0,0,.2-.2.3-.4.3-.2,0-.3,0-.3,0-.2,0-.2,0-.3,0l.4-1.4c0-.3.2-.4.6-.3.3,0,.3.4.2.6.2,0,.4,0,.6,0,0,0,0,0,0,0,0,0,0,0,0,0,.1,0,.1-.1.2-.2h-.1c.1,0,.1-.1.2-.2,0,0-.4.2-.5,0,0,0,.3,0,.3-.1,0,0,0,0,0,0-.1,0-.2,0-.3,0,0-.2,0-.2.4-.2.7-.2.5,0,.7.4,0,0,0,0-.1,0,0,0,0,.1.1.2,0,0,0,0-.1,0,0,0,0,.1.1.2,0,0,0,0,0,0,0,0,0,0,0,0,.2,0,.3,0,.4-.1,0-.2-.1-.4.2-.5.2,0,.4,0,.5.2l.8,1.5c0,0,0,0-.3,0,0,0-.1,0-.3,0-.2,0-.3,0-.4-.3,0,.2-.1.2-.3,0,0,.2-.2.2-.3,0,0,.2-.1.2-.3,0v.3s2.2,0,2.2,0v.4h0v1.1c0,1.3-1.9,1.8-2.9,2.2-1.1-1.1-2-2.8-3.1-6.6-.4,1.2-.7,2.3-1,3.1h-.3s0-.2,0-.2h-.2c.1-.2,0-.3.1-.5,0-.1.1-.1.2,0,0-.1,0-.3-.2-.1,0,0,0-.1,0-.2,0,0,.2,0,.2,0,.1,0,0-.4-.3-.1,0,0,0-.1,0-.2,0,0,.1,0,.2,0,.1,0,0-.3-.2-.1-.1-.2-.2-.8.1-.9.2,0,.3,0,.4.2,0,0,0,.2,0,.2,0,0,0,0,0,0-.2.1,0,.4,0,.5,0,0,0-.1,0-.2,0,0,0,0,0,0,0,0,0-.2,0-.2,0,0,0,0,0,0,0-.2,0-.2,0-.3,0,0,0,0,0,0-.2,0-.3-.4-.5-.5-.6-.2-.8.4-.6.9,0,.2.2.6.3.8,0,.1,0,.3,0,.6h-.2v.3h-.3c-.4-.4-.5-.7-.8-1,0,0,.2.1.4.1,0,0-.1-.1-.1-.2.1.1.3.1.4.1-.1-.1-.2-.2-.2-.4.1,0,.2.1.2.2.1-.2,0-.4,0-.5.1,0,0,0,.2,0,0-.1,0-.1-.1-.2,0,0,0,0,.1,0,0,0,0-.1-.1-.2,0,0,0,0,.1,0-.3,0-.1-.2-.4-.3,0-.1-.1-.2-.2,0,0,0,0,0-.1,0,0-.2-.2-.2-.2,0-.1,0-.2,0-.3.1,0,0,0,0,0,.1-.1,0-.2,0-.3.1,0,0,0,0,0,0,0,0,0,.2,0,.2,0,0,0,0,0,0,0,0,.1-.1.2-.1,0,0,0,0,0,0,0,0,0,0,0,.2-.5,0-.5,0-.6-.1,0-.1,0,0,0,0,0,0,0,.1.6.1,0,0,0,0-.2,0,0,0,0,0,0,0,0,0,0,0,0,0,0,0,0,0,0,0-.1,0-.2,0-.4,0-.2-.3-.5-.1-.7-.6h0s0,0,0,0h0s0,.1,0,.1h0s0-.2,0-.2c.4-.2.6-.2,1-.2.1-.1.2-.2.3-.3-.6,0-.9.2-1.4.5h0s-.1-.2-.1-.2h0s0,.2,0,.2c0,0-.1-.1-.2,0-.1,0-.2,0-.2.1-.1,0-.1.3,0,.3h0s0,0,0,0h0s0,.1,0,.1h.1s0,0,0,0c0,0,0,0,0,0,0,0,0,.2,0,.3,0,0,0,0,0,0,0,.1,0,.2,0,.3,0,0,0,0,.1,0,0,.1,0,.2,0,.3,0,0,0,0,0-.1,0,0,.1.1.2.2,0,0,0,0,0,0,0,0,0,0-.2,0,0,0,.1,0,.3,0,0,0,0,.1-.1.1,0,0,.1,0,.2,0-.2,0-.3,0-.5.2,0,0,0-.2,0-.2,0,0,0,0-.1,0,0,0,0,0,0,.1,0-.1,0-.2-.1-.2,0,0,0,0-.1,0,0,0,0,0,0,0,0,0,0,0,0,0,0,0,0,0,0,0,0,0,0,0-.1,0,0,0,0,0,0,.1,0,0,0,0,.1,0,0,0-.1,0-.2,0,0,0,0,0,0,.2,0,0,.3,0,.3-.1,0,0,0,0,0,.1.1,0,.3-.1.3-.2,0,0,0,0,0,.1,0,0,.1,0,.2-.1,0,0,0,0,0,.1.1,0,.1,0,.2-.1,0,0,0,0,0,.1.1,0,.1,0,.2-.2,0,0,0,0,0,.1.1,0,.2,0,.2-.2,0,0,0,0,0,.1,0,0,.1,0,.2-.2,0,0,0,0,0,.1,0,0,.1,0,.2-.1.1.3.6.3.6.5v.2h-.6v-.3h-.6v.3h-.6v-.3h-.6v.3h-.6v-3.2ZM35.5,41.4h0v-2.7c0-.4.3-.8.8-.7.4,0,.6.3.4.6.2.1.4.2.8.3,0,0,.1-.2.2-.3,0,0,0,0-.1,0,.1-.1.2-.1.3-.2,0,0,0-.2-.1-.2,0,0-.1,0-.1,0v.2h-.1v-.2h0s0,0,0,0c-.1-.2,0-.3,0-.3,0-.1,0-.2,0-.3,0,0-.1,0-.2,0,0,0,0-.1,0-.2.1,0,.1,0,.2,0,0,0,0-.2,0-.2,0,0,.1,0,.2,0,0,0,0,.1,0,.2.1,0,.1,0,.2,0,0,0,0,.1,0,.2,0,0-.2,0-.2,0,0,0,0,.2,0,.3,0,0,0,0,0,0h0s0,0,0,0c0-.2.4-.2.6-.2.3,0,.2.4.5.5,0,0,0,0-.1,0,0,.1,0,.2.1.3,0,0,0,0-.1,0,0,0,.1.2.1.3,0,0,0,0-.1,0,0,0,.1.2.1.3.3,0,.5,0,.7-.2-.1-.4-.2-.6.3-.7.4,0,.8,0,.8.8v2.6c0,.2,0,.3.1.4-.2,0-.3-.1-.5-.4-.1,0-.2,0-.4-.4-.3,0-.3-.1-.3-1.1,0,0,0,0-.2.1-.1,0-.2,0-.2-.1,0,0,0,.1-.1.1,0,0,0,0-.1,0,0,.2.3.5.5.7-.1,0-.1,0-.2,0,.2.3.2.4.4.7,0,0,0,0,0,0,.1,0,.2,0,.2,0,0,0,0,0,0,0h0c0,0,.2,0,.1.1,0,0,0,0-.1,0,0,0,0,0,0,0-.1,0,0,0-.2,0,0,.1.2,0,.2.2,0,0,0,0,0,0h0c0,0,0,.2,0,.2,0-.2,0-.1,0-.2h0s0,0,0,0c-.2-.1,0-.2-.1-.3,0,0,0,0,0,0,0,.2,0,.2,0,.3,0,0,0,0,0,0,0,0,0,0,0,.2-.1,0,0-.2,0-.2h0s0,0,0,0c0,0,.1-.1.2-.3t0,0c-.1,0,0,.1-.2.1,0,0,0,0,0,0,0,0,0,0,0,.1,0,0,0-.2,0-.2s0,0,0,0c0,0,.1,0,.2,0,0,0,0,0,0,0-.1-.2-.4-.5-.5-.7,0,.1,0,.2,0,.2-.1-.2-.2-.3-.3-.5,0,0,0,0,0,0,0,0,0,0,0,0,.1.6.2.7.5,1.2,0,0-.3.1-.4.2,0,0,0,.1.1.2-.2.1-.3.2-.5.2-.2,0-.3-.1-.6-.2,0,0,0-.1.1-.2-.2,0-.3-.1-.5-.2.4-.6.5-.6.6-1.1,0,0,0,0,0,0,0,0,0,0,0,0-.1.2-.2.2-.3.4,0,0,0,0,0-.1,0,0-.2.2-.6.6,0,0,0,0,0,0,.1,0,.2,0,.2,0,0,0,0,0,0,0h0c0,0,.1.1,0,.2,0-.1,0,0,0-.1h0s0,0,0,0c0,0-.3-.2-.3,0,0,.1.2.2.2.2,0,0,0,0,0,0,0,0,0,0,0,.2,0-.1,0,0,0-.1,0,0,0,0,0,0,0,0,0-.1,0-.3,0,0,0,0,0,0,0,0,0,.1-.1.2,0,0,0,0,0,0,0,0,0,0,0,.2,0,0,0-.1,0-.2,0,0,0,0,0,0,0-.1.1,0,.2-.2-.1,0-.1,0-.2,0,0,0-.1,0-.1,0,0-.1,0-.2.1-.1h0s0,0,0,0c0,0,.1,0,.2,0,0,0,0,0,0,0,0-.1.5-.6.6-.7,0,0-.1,0-.2,0,0-.1.2-.4.4-.7,0,0,0,0-.1.1,0,0-.1,0-.1-.1,0,0,0,0-.2.1,0,0-.1,0-.2-.1,0,.4,0,.8-.3.9,0,.2-.1.3-.4.5,0,.2-.2.4-.5.5,0-.1,0-.2.1-.3ZM36.1,37.2h0c0-.1,0-.1,0-.1h0c0,0,0,0,0,0h0c0,0,0,0,0,0h0s0,0,0,0h0c0,0,0,.1,0,.1h0c0,0,0,.1,0,.1h0c0,0,0,.1,0,.1h0s0,.1,0,.1h0s0,0,0,0h0s0,0,0,0h0c0,0,0,0,0,0h0c0,0,0,0,0,0h0c0,0,0-.1,0-.1h0c0,0,0-.1,0-.1h0s0-.1,0-.1ZM38.9,37.1h0c0-.2.7-.3.7.2,0,.5-.7.4-.7.2.2.1.4,0,.4-.2,0-.1-.2-.3-.4-.2ZM43.3,49h0c-.2,0-.5,0-.7-.1-.2.2-.6.3-.8.2h0c-.2.2-.4,0-.2,0-.2,0-.4-.1-.4-.3,0,0,.1,0,.2,0h0c0,0,0,0,.1-.1-.3-.3.5-.7.3-.8,0,0-.2,0-.2.1,0-.2,0-.3.3-.3,0-.2-.2-.5-.4-.7-.1-.2-.3-.5-.2-.9.2-.7,0-.6,0-.8,0-.3,0-.4.2-.5-.1.2.4.4.2.8.6.1.2.6.4.9-.5-.2-.2-.5-.5-.5-.2,0,.5.9.5,1,0,0,0,0,.1,0,0,0,0,0,.1,0,0,.2,0,.2,0,.4.2.2.3.5.4.6.1.2.1.6,0,1,.2-.1.3-.1.4-.2,0,0,0,.1,0,.2,0,0,.1,0,.2,0-.1,0-.2,0-.3.1,0,0,.2,0,.2.1ZM40.6,49h0c.2.1,0,.2-.2,0h0,0c-.3,0-.6,0-.9-.2-.2.2-.5.2-.8.2,0,0,.1-.2.2-.2,0-.1-.1-.1-.2-.1,0,0,.2,0,.3-.1,0,0,0-.1,0-.2.1,0,.2.1.4.2-.2-.4-.2-.8,0-1,0-.2.3-.4.5-.7h0c0-.1,0-.1,0-.3,0,0,0,0,.1,0,0,0,0,0,.1,0,.4-.5.8-1,.5-1-.3,0,0,.4-.5.5.2-.3-.3-.8.4-.9-.2-.4.3-.5.2-.8.2.1.3.2.2.5,0,.2-.2,0,0,.8,0,.4,0,.8-.2.9-.2.2-.3.5-.4.7.3,0,.4.2.3.3,0,0-.1-.2-.2-.1-.2.1.7.5.3.8,0,0,0,0,.1.1h0c0,0,.1,0,.2,0,0,.2-.3.3-.5.3ZM38.1,47.8h0v-.9s.2-.3.2-.3l.4-.2h.4c0,.1.2.4.2.4v.3c0,.3-.2.5-.4.7,0,0-.2,0-.2-.1-.1.2-.4.1-.5,0ZM37,47.8h0c-.2.1-.4,0-.6-.1-.2.2-.4.2-.6,0h0v-.9l.3-.3h.3c0,0,.4,0,.4,0l.2.3v.9ZM36.2,48.6c1.6.5,3.3,1.1,4.9,1.6,1.8-.5,6-1.6,6.3-3.1h0c0,0,0-.3,0-.4v-10.3s-12.5,0-12.5,0v10.7s0,0,0,0c0,.7.7,1.1,1.3,1.4Z"/>
        <polygon class="cls-2" points="43.4 46.5 43.5 46.5 43.5 46.7 43.8 46.7 43.8 46.3 43.6 46.3 43.6 46.2 43.8 46.2 43.8 45.9 43.6 45.9 43.6 46.1 43.5 46.1 43.5 45.9 43.4 45.9 43.4 46.1 43.2 46.1 43.2 45.9 43.1 45.9 43.1 46.2 43.2 46.2 43.2 46.3 43.1 46.3 43.1 46.7 43.4 46.7 43.4 46.5"/>
        <polygon class="cls-2" points="45.4 46.5 45.5 46.5 45.5 46.7 45.8 46.7 45.8 46.3 45.7 46.3 45.7 46.2 45.8 46.2 45.8 45.9 45.7 45.9 45.7 46.1 45.5 46.1 45.5 45.9 45.4 45.9 45.4 46.1 45.2 46.1 45.2 45.9 45.1 45.9 45.1 46.2 45.2 46.2 45.2 46.3 45.1 46.3 45.1 46.7 45.4 46.7 45.4 46.5"/>
        <polygon class="cls-2" points="44.7 46.9 44.6 46.9 44.6 47.2 44.7 47.2 44.7 47.3 44.6 47.3 44.6 47.7 44.9 47.7 44.9 47.5 45 47.5 45 47.7 45.3 47.7 45.3 47.3 45.2 47.3 45.2 47.2 45.3 47.2 45.3 46.9 45.2 46.9 45.2 47 45 47 45 46.9 44.9 46.9 44.9 47 44.7 47 44.7 46.9"/>
        <polygon class="cls-2" points="43.7 46.9 43.6 46.9 43.6 47.2 43.7 47.2 43.7 47.3 43.6 47.3 43.6 47.7 43.9 47.7 43.9 47.5 44 47.5 44 47.7 44.3 47.7 44.3 47.3 44.2 47.3 44.2 47.2 44.3 47.2 44.3 46.9 44.2 46.9 44.2 47 44 47 44 46.9 43.9 46.9 43.9 47 43.7 47 43.7 46.9"/>
        <polygon class="cls-2" points="44.4 46.5 44.5 46.5 44.5 46.7 44.8 46.7 44.8 46.3 44.7 46.3 44.7 46.2 44.8 46.2 44.8 45.9 44.7 45.9 44.7 46.1 44.5 46.1 44.5 45.9 44.4 45.9 44.4 46.1 44.2 46.1 44.2 45.9 44.1 45.9 44.1 46.2 44.2 46.2 44.2 46.3 44.1 46.3 44.1 46.7 44.4 46.7 44.4 46.5"/>
        <polygon class="cls-2" points="45.7 46.9 45.6 46.9 45.6 47.2 45.7 47.2 45.7 47.3 45.6 47.3 45.6 47.7 45.9 47.7 45.9 47.5 46 47.5 46 47.7 46.3 47.7 46.3 47.3 46.2 47.3 46.2 47.2 46.3 47.2 46.3 46.9 46.2 46.9 46.2 47 46 47 46 46.9 45.9 46.9 45.9 47 45.7 47 45.7 46.9"/>
        <polygon class="cls-2" points="46.4 46.5 46.5 46.5 46.5 46.7 46.8 46.7 46.8 46.3 46.7 46.3 46.7 46.2 46.8 46.2 46.8 45.9 46.7 45.9 46.7 46.1 46.5 46.1 46.5 45.9 46.4 45.9 46.4 46.1 46.2 46.1 46.2 45.9 46.1 45.9 46.1 46.2 46.2 46.2 46.2 46.3 46.1 46.3 46.1 46.7 46.4 46.7 46.4 46.5"/>
        <path class="cls-2" d="M42.5,39.7c.2,0,.2,0,.5-.1,0,0,0,.2,0,.3,0,.1,0,.2,0,.3,0,0,0,.1,0,.2,0,.3.1.4.3.8-.1,0-.3.2-.3.3s.3.4.5.4c0,.2.2.2.3.2s.2,0,.3-.2c.2,0,.5-.1.5-.4s-.1-.3-.3-.3c.2-.4.3-.5.3-.8,0,0,0,0,0-.2,0,0,0-.2,0-.3,0,0,0-.2,0-.3.3,0,.4.1.5.1.5,0,.7-.2.8-.5-.5.1-.6-.3-1-.3.2,0,.3-.3.3-.8s-.5-1.2-1-1.2c.4.2.5.6.5.9,0,.5-.2.5-.4.7-.2-.1-.4,0-.6.1,0-.1-.1-.2-.3-.2s-.2,0-.2.2c-.2-.2-.3-.3-.6-.1-.2-.1-.4-.2-.4-.7,0-.3.1-.7.5-.9-.5,0-1,.6-1,1.2s.2.8.3.8c-.4,0-.5.4-1,.3.2.3.3.5.8.5"/>
        <polygon class="cls-2" points="43.7 38.3 44 38.1 44.4 38.3 44.4 37.9 44.6 37.6 44.2 37.5 44 37.1 43.8 37.5 43.4 37.6 43.7 37.9 43.7 38.3"/>
        <path class="cls-2" d="M42,41.3c-.4.1-.3.1-.3.2,0,0,0,0,.2.1,0,0,0,.1.2.1.1,0,.2,0,.2-.3,0,.3,0,.3.2.3,0,0,0,0,.2-.1,0,0,.1,0,.2-.1,0,0,0-.1-.3-.2.3,0,.4,0,.4,0,0,0,0-.1,0-.2,0,0,0-.1,0-.2,0,0-.1,0-.3.2.2-.3.2-.3.1-.4,0,0-.2,0-.3,0-.1,0-.1,0-.2,0,0,0-.1,0,.1.3-.3-.3-.2-.2-.3-.2,0,0,0,.1,0,.2,0,0,0,.1,0,.2,0,0,0,.1.4,0"/>
        <path class="cls-2" d="M46.4,40.9c0-.4-1.1-.4-1.1.3,0,.7,1.1.7,1.1.2-.3.2-.6,0-.6-.2s.3-.5.6-.3"/>
        <path class="cls-2" d="M47.7,47.1h0c0,1.6-2.4,2-6.6,3.6-4.1-1.4-6.5-1.7-6.5-3.2v-11.2h13.2v10.9ZM38.1,29.7h0v-.3c.5,0,1.1.2,1.4.3l.2.4c-.4-.2-1.1-.4-1.6-.4ZM40.5,28.4h0s0,0,0,0c0,.2,0,.5-.3.5-.2,0-.5,0-.5-.3,0,0,0,0,0,0l.9-.2ZM46.1,50.9h0s0,0,0,0h0s0,0,0,0ZM46.1,50.9h0s0,0,0,0c0,0,0,0,0,0,0,0,0,0,0,0ZM53.2,41.2c0,0,.4.2.4.2-.4-1.2-.3-2.9-.3-4.7.1,0,.4.2.5.3,0-1.1,0-1.3,0-1.9,0-3.7-1.9-4.7-3.4-5.1-2.7-.6-4.6,1.5-3.9,3.8-.2.7-.5,1.2-1.2,1.5-.5.2-1.3.2-1.6-.4.1,0,.2.1.4.1-.2-.2-.3-.4-.3-.7-.1-.5-.2-1.1-.5-1.6.3.3.4.5.5.8.1-.7,0-1.5-.4-1.9.3.1.3,0,.5.3,0-.4,0-.5-.1-.8,0-.6,0-.7-.3-1.1.3.1.5,0,.7,0-.4-.1-.6-.3-.9-.7-.3-.5-.4-1.4-1.5-1.3-.5,0-1,0-1.9,0-.3,0-.9.2-1.4.2v.3s-.2,0-.2,0c0,0,0,0,0,0v-.3h0s0-.2,0-.2v-.5c.4,0,.7,0,1.1,0v-.8c-.4,0-.8,0-1.2.1,0-.4,0-.7.2-1.1-.3,0-.5,0-.8,0,0,.4.1.7.1,1.1-.4,0-.7,0-1.1,0v.7c.2,0,.9,0,1.1,0v1c-.4.1-.7.4-.4,1.2.1-.3.2-.4.4-.5,0,1.2,0,2.5-.2,3.7.4-.1.6-.2,1,0-.3-1-.3-2.1-.2-3.1,0,0,0,0,.1,0,.6,0,1.3.3,1.4,1,.2.6-.3,1-.6,1.5-.5,1.1-.3,1.9-.8,2.5.2,0,.3,0,.3,0-.4.5-1.1.5-1.7.4-.5-.2-.9-.7-1.1-1.4.8-2.7-2-4.5-4-3.9-1.1.3-3.2,1-3.3,5.1,0,.6,0,1-.1,1.6.2,0,.3,0,.4-.2,0,1.7,0,4-.4,4.8.2,0,.3-.1.4-.2.1,7.1.2,12.3-.3,13.5.8-.2,1.1-.4,1.6-.9.2,0,.4,0,.6-.1v-8.7c-.3-1.3-.7-2.6-1-3.9-.1-.5-.1-.8,0-1.3v-.5c.1,0,.6.4.6.4.2.1.3.3.4.4v-5.4c0-.1,0-.2.2-.2s.2,0,.2.2v6.2c.9,2.5,1.5,5.1,2.2,7.7v-15c0-.1,0-.2.2-.2s.2,0,.2.2v16.4c0,.2,0,.3.1.5.4-.5.6-1,.7-1.8.2.3.7.6,1.2.9-.5.8-.5,1.1-1.3,1.5.6.2,1.1.3,1.6,0,0,0,0,0,0,0-.2.3-.3.5-.4.8-.2.3-.3.4-.5.7-.4.1-.6,0-1.1,0,0,0,0,0,0,0,0,0,0-.2,0-.2,0,0,.1,0,.1-.1,0,0,.2,0,.2-.1,0,0,.1,0,.2,0l.7-.2c0,0,.2,0,.2,0,.2,0,.3-.2.3-.3,0,0-.2-.2-.4,0,0,0-.1,0-.1.1l-.7.2c0,0-.2,0-.2,0,0,0-.2,0-.2,0,0,0-.1,0-.2,0-1-3.5-1.9-7.4-3.1-10.9-.2-.4-.3-.7-.7-1-.1.4-.1.7,0,1.2.8,3.5,2,7.5,2.9,11,0,0-.1,0-.2.1,0,0-.2,0-.2,0,0,0-.1,0-.2,0l-.6.2c0,0-.1,0-.2,0-.2,0-.3.2-.3.3,0,0,.3.2.4,0,0,0,.1,0,.2-.1l.6-.2c0,0,.1,0,.2,0,0,0,.2,0,.2,0,0,0,.1,0,.2,0,0,0,0,0,0,0,0,0,0,.1,0,.2-.4.2-.5.4-.4.6,0,0,0,0,0,.1-.2,0-.4.3-.3.6,0,0,0,.2.1.3h0s0,0,0,0c-.2.2-.3.5.2.6,0,.4.2.4.3.4.1,0,.2.1.3.2.2,0,.4,0,.6.2.2,0,.3,0,.5,0,0,0,.1-.1.2-.2.3-.1.3-.2.4-.5.3-.3.5-1.2.5-1.4.2-.8.7-1.4,1.2-2.1,0,.5,0,1.2.5,1.5,0-1.2.5-1.8,1.1-2.6.1,0,.5,0,.5.1-.3,2.9-2.4,3.9-3.3,4.8.4.3.8.6,1.2,1-.1.2-.2.3-.4.4.3.2,1.4.9,1.7,1.1-.1.2-.2.4-.4.6,1.2.8,1.9,1.1,3.2,1.8,0,0,2.1-1,3.4-1.8-.1-.2-.2-.4-.4-.6.7-.4,1.3-.8,1.8-1.2-.1-.2-.2-.3-.4-.4.7-.5.7-.5,1.3-.9-2.2-2-2.9-2.7-3.7-5,.2,0,.5-.2.7-.2.7.9,1,1.3,1.3,2.5.4-.4.3-.9.4-1.5,0,0,0,0,0,0,0,0,0,0,0,0,0,0,0,0,0,0,0,0,0,0,0,0,0,0,0,0,0,0,.5.8.8,1.3,1.2,1.9,0,.4,0,.6.1.8h0c0,.2.2.3.3.5,0,.3.2.5.4.6,0,0,0,.1,0,.2.1.2.5.2.8.1.2-.1.3-.1.4-.2.2,0,.2,0,.4,0,.2,0,.3-.1.4-.2.1-.1.1-.3,0-.4.2-.2.5-.3.2-.6,0,0,0,0,0,0,.1-.2.1-.5,0-.7,0-.4-.2-.6-.5-.8,0,0,0,0,0,0,.5-1.8,1.1-4.1,1.6-6.2.2,0,.3-.1.3-.2.2,0,.2-.2,0-.3.2,0,.2-.2.2-.4.7-.8,1.2-1.3,1.2-1.6,0-.3-.2-.8-.4-1.6,0,0,0-.3-.2-.3,0,0,0,0,0,0,0,0,.1-.1.1-.2,0-.1,0-.2-.2-.2s-.2.1-.2.2,0,0,0,0c0,0,0,0-.1,0-.2,0-.3.1-.4.3-.5.6-1.1,1-1.2,1.2,0,.2,0,.9.2,1.8-.2,0-.2.3-.1.4-.2,0-.2.2,0,.3,0,.2,0,.3.1.3-.5,2-1,3.8-1.8,6.1-.1,0-.8,0-1.2,0-.4-.5-.6-.9-.8-1.3.6.2.8.1,1.5,0-.8-.4-1-.6-1.5-1.4.6-.3,1.1-.6,1.4-.9.2.9.4,1.4,1,1.8,0-.2,0-.3.1-.5v-16.2c0-.1,0-.2.2-.2s.2,0,.2.2v14.9c.2-.8.4-1.5.6-2.3,0-.1,0-.2,0-.4,0-.2,0-.4,0-.5,0-.2,0-.3.2-.5,0-.3,0-.7-.1-1,0-.2,0-.5,0-.7h0s0,0,0,0c0-.2.3-.5.5-.6.2-.2.5-.4.7-.7,0-.2.2-.3.4-.4v-6.6c0-.1,0-.2.2-.2s.2,0,.2.2v6.3c0,0,.1,0,.2,0,.3,0,.6.3.6.6s0,0,0,.1c0,0,0,.1.1.2,0,0,0,.2,0,.2,0,.3.2.6.3.9,0,.2.1.5,0,.8h0s0,0,0,0c0,.2-.3.5-.5.7-.2.3-.5.6-.7.8,0,0,0,.2,0,.3v7.6c.3.2.5.3.8.3.5.4.8.5,1.4.7-.8-.9-.5-7.5-.5-13.1Z"/>
        <path class="cls-2" d="M31.8,52.2h.4c0-.2.1-.2.2-.3,0,0,0,0,.1,0-.5-1.8-1-3.6-1.4-5.4v6c0-.1.2-.2.3-.2.1,0,.2,0,.3,0"/>
        <path class="cls-2" d="M50.9,46.7c-.2.6-.3,1.2-.5,1.8-.3,1-.5,2.1-.8,3.2.4.4.7.7,1,.8.1.3.3.5.5.7v-6.6c0,0-.1.2-.3.2"/>
        <path class="cls-4" d="M42.3,26.6h0c0,.1-.2.6-.2.6h0c0,0,.1.1.1.2s0,.2-.2.2-.2,0-.2-.2,0,0,0,0h0s0,0,0,0c0,0,0,0,0,0,0,.1-.1.2-.2.2s-.2,0-.2-.2.1-.2.2-.2c0,0,0-.6-.2-.7,0,0,0,0,0-.4,0,0,.4,0,.6,0,.2,0,.4.3.4.5M40.9,26.5h0c-.2.1-.2.7-.2.7.1,0,.2,0,.2.2s-.1.2-.2.2-.2,0-.2-.2,0,0,0,0h0s0,0,0,0c0,0,0,0,0,0,0,.1,0,.2-.2.2s-.2,0-.2-.2,0-.2.1-.2h0s-.2-.5-.2-.6c0-.2.2-.4.4-.5.2,0,.6,0,.6,0,.1.3,0,.4,0,.4ZM43,26.4c0-.5-.2-.7-.9-.7-.4-.2-.8,0-.8,0,0,0,0,0,0,0,0,0,0,0,0,0s0,0,0-.1v-.4h.3v-.3h-.3v-.3h-.3v.3h-.3v.3h.3v.3s0,0,0,.1,0,0,0,0c0,0,0,0,0,0,0,0-.5-.2-.8,0-.7,0-.9.2-.9.7h-.2s0,.3,0,.3h.1c.1.2.3.4.4.6,0,.1,0,.4.2.4v.4s0,.2,0,.1c.1,0,.3,0,.5,0,0,0,.1,0,.2,0,.2,0,.3,0,.5,0h.3c.2,0,.3,0,.5,0,0,0,.1,0,.2,0,.2,0,.3,0,.5,0,0,0,.1-.1,0-.1v-.4c.3,0,.2-.3.2-.4,0-.3.2-.5.4-.6h.1v-.4h-.1Z"/>
        <path class="cls-2" d="M47.7,47.1h0c0,1.6-2.4,2-6.6,3.6-4.1-1.4-6.5-1.7-6.5-3.2v-11.2h13.2v10.9ZM38.1,29.7h0v-.3c.5,0,1.1.2,1.4.3l.2.4c-.4-.2-1.1-.4-1.6-.4ZM40.5,28.4h0s0,0,0,0c0,.2,0,.5-.3.5-.2,0-.5,0-.5-.3,0,0,0,0,0,0l.9-.2ZM46.1,50.9h0s0,0,0,0h0s0,0,0,0ZM46.1,50.9h0s0,0,0,0c0,0,0,0,0,0,0,0,0,0,0,0ZM53.2,41.2c0,0,.4.2.4.2-.4-1.2-.3-2.9-.3-4.7.1,0,.4.2.5.3,0-1.1,0-1.3,0-1.9,0-3.7-1.9-4.7-3.4-5.1-2.7-.6-4.6,1.5-3.9,3.8-.2.7-.5,1.2-1.2,1.5-.5.2-1.3.2-1.6-.4.1,0,.2.1.4.1-.2-.2-.3-.4-.3-.7-.1-.5-.2-1.1-.5-1.6.3.3.4.5.5.8.1-.7,0-1.5-.4-1.9.3.1.3,0,.5.3,0-.4,0-.5-.1-.8,0-.6,0-.7-.3-1.1.3.1.5,0,.7,0-.4-.1-.6-.3-.9-.7-.3-.5-.4-1.4-1.5-1.3-.5,0-1,0-1.9,0-.3,0-.9.2-1.4.2v.3s-.2,0-.2,0c0,0,0,0,0,0v-.3h0s0-.2,0-.2v-.5c.4,0,.7,0,1.1,0v-.8c-.4,0-.8,0-1.2.1,0-.4,0-.7.2-1.1-.3,0-.5,0-.8,0,0,.4.1.7.1,1.1-.4,0-.7,0-1.1,0v.7c.2,0,.9,0,1.1,0v1c-.4.1-.7.4-.4,1.2.1-.3.2-.4.4-.5,0,1.2,0,2.5-.2,3.7.4-.1.6-.2,1,0-.3-1-.3-2.1-.2-3.1,0,0,0,0,.1,0,.6,0,1.3.3,1.4,1,.2.6-.3,1-.6,1.5-.5,1.1-.3,1.9-.8,2.5.2,0,.3,0,.3,0-.4.5-1.1.5-1.7.4-.5-.2-.9-.7-1.1-1.4.8-2.7-2-4.5-4-3.9-1.1.3-3.2,1-3.3,5.1,0,.6,0,1-.1,1.6.2,0,.3,0,.4-.2,0,1.7,0,4-.4,4.8.2,0,.3-.1.4-.2.1,7.1.2,12.3-.3,13.5.8-.2,1.1-.4,1.6-.9.2,0,.4,0,.6-.1v-8.7c-.3-1.3-.7-2.6-1-3.9-.1-.5-.1-.8,0-1.3v-.5c.1,0,.6.4.6.4.2.1.3.3.4.4v-5.4c0-.1,0-.2.2-.2s.2,0,.2.2v6.2c.9,2.5,1.5,5.1,2.2,7.7v-15c0-.1,0-.2.2-.2s.2,0,.2.2v16.4c0,.2,0,.3.1.5.4-.5.6-1,.7-1.8.2.3.7.6,1.2.9-.5.8-.5,1.1-1.3,1.5.6.2,1.1.3,1.6,0,0,0,0,0,0,0-.2.3-.3.5-.4.8-.2.3-.3.4-.5.7-.4.1-.6,0-1.1,0,0,0,0,0,0,0,0,0,0-.2,0-.2,0,0,.1,0,.1-.1,0,0,.2,0,.2-.1,0,0,.1,0,.2,0l.7-.2c0,0,.2,0,.2,0,.2,0,.3-.2.3-.3,0,0-.2-.2-.4,0,0,0-.1,0-.1.1l-.7.2c0,0-.2,0-.2,0,0,0-.2,0-.2,0,0,0-.1,0-.2,0-1-3.5-1.9-7.4-3.1-10.9-.2-.4-.3-.7-.7-1-.1.4-.1.7,0,1.2.8,3.5,2,7.5,2.9,11,0,0-.1,0-.2.1,0,0-.2,0-.2,0,0,0-.1,0-.2,0l-.6.2c0,0-.1,0-.2,0-.2,0-.3.2-.3.3,0,0,.3.2.4,0,0,0,.1,0,.2-.1l.6-.2c0,0,.1,0,.2,0,0,0,.2,0,.2,0,0,0,.1,0,.2,0,0,0,0,0,0,0,0,0,0,.1,0,.2-.4.2-.5.4-.4.6,0,0,0,0,0,.1-.2,0-.4.3-.3.6,0,0,0,.2.1.3h0s0,0,0,0c-.2.2-.3.5.2.6,0,.4.2.4.3.4.1,0,.2.1.3.2.2,0,.4,0,.6.2.2,0,.3,0,.5,0,0,0,.1-.1.2-.2.3-.1.3-.2.4-.5.3-.3.5-1.2.5-1.4.2-.8.7-1.4,1.2-2.1,0,.5,0,1.2.5,1.5,0-1.2.5-1.8,1.1-2.6.1,0,.5,0,.5.1-.3,2.9-2.4,3.9-3.3,4.8.4.3.8.6,1.2,1-.1.2-.2.3-.4.4.3.2,1.4.9,1.7,1.1-.1.2-.2.4-.4.6,1.2.8,1.9,1.1,3.2,1.8,0,0,2.1-1,3.4-1.8-.1-.2-.2-.4-.4-.6.7-.4,1.3-.8,1.8-1.2-.1-.2-.2-.3-.4-.4.7-.5.7-.5,1.3-.9-2.2-2-2.9-2.7-3.7-5,.2,0,.5-.2.7-.2.7.9,1,1.3,1.3,2.5.4-.4.3-.9.4-1.5,0,0,0,0,0,0,0,0,0,0,0,0,0,0,0,0,0,0,0,0,0,0,0,0,0,0,0,0,0,0,.5.8.8,1.3,1.2,1.9,0,.4,0,.6.1.8h0c0,.2.2.3.3.5,0,.3.2.5.4.6,0,0,0,.1,0,.2.1.2.5.2.8.1.2-.1.3-.1.4-.2.2,0,.2,0,.4,0,.2,0,.3-.1.4-.2.1-.1.1-.3,0-.4.2-.2.5-.3.2-.6,0,0,0,0,0,0,.1-.2.1-.5,0-.7,0-.4-.2-.6-.5-.8,0,0,0,0,0,0,.5-1.8,1.1-4.1,1.6-6.2.2,0,.3-.1.3-.2.2,0,.2-.2,0-.3.2,0,.2-.2.2-.4.7-.8,1.2-1.3,1.2-1.6,0-.3-.2-.8-.4-1.6,0,0,0-.3-.2-.3,0,0,0,0,0,0,0,0,.1-.1.1-.2,0-.1,0-.2-.2-.2s-.2.1-.2.2,0,0,0,0c0,0,0,0-.1,0-.2,0-.3.1-.4.3-.5.6-1.1,1-1.2,1.2,0,.2,0,.9.2,1.8-.2,0-.2.3-.1.4-.2,0-.2.2,0,.3,0,.2,0,.3.1.3-.5,2-1,3.8-1.8,6.1-.1,0-.8,0-1.2,0-.4-.5-.6-.9-.8-1.3.6.2.8.1,1.5,0-.8-.4-1-.6-1.5-1.4.6-.3,1.1-.6,1.4-.9.2.9.4,1.4,1,1.8,0-.2,0-.3.1-.5v-16.2c0-.1,0-.2.2-.2s.2,0,.2.2v14.9c.2-.8.4-1.5.6-2.3,0-.1,0-.2,0-.4,0-.2,0-.4,0-.5,0-.2,0-.3.2-.5,0-.3,0-.7-.1-1,0-.2,0-.5,0-.7h0s0,0,0,0c0-.2.3-.5.5-.6.2-.2.5-.4.7-.7,0-.2.2-.3.4-.4v-6.6c0-.1,0-.2.2-.2s.2,0,.2.2v6.3c0,0,.1,0,.2,0,.3,0,.6.3.6.6s0,0,0,.1c0,0,0,.1.1.2,0,0,0,.2,0,.2,0,.3.2.6.3.9,0,.2.1.5,0,.8h0s0,0,0,0c0,.2-.3.5-.5.7-.2.3-.5.6-.7.8,0,0,0,.2,0,.3v7.6c.3.2.5.3.8.3.5.4.8.5,1.4.7-.8-.9-.5-7.5-.5-13.1Z"/>
        <path class="cls-2" d="M31.8,52.2h.4c0-.2.1-.2.2-.3,0,0,0,0,.1,0-.5-1.8-1-3.6-1.4-5.4v6c0-.1.2-.2.3-.2.1,0,.2,0,.3,0"/>
        <path class="cls-2" d="M50.9,46.7c-.2.6-.3,1.2-.5,1.8-.3,1-.5,2.1-.8,3.2.4.4.7.7,1,.8.1.3.3.5.5.7v-6.6c0,0-.1.2-.3.2"/>
        <path class="cls-4" d="M42.3,26.6h0c0,.1-.2.6-.2.6h0c0,0,.1.1.1.2s0,.2-.2.2-.2,0-.2-.2,0,0,0,0h0s0,0,0,0c0,0,0,0,0,0,0,.1-.1.2-.2.2s-.2,0-.2-.2.1-.2.2-.2c0,0,0-.6-.2-.7,0,0,0,0,0-.4,0,0,.4,0,.6,0,.2,0,.4.3.4.5M40.9,26.5h0c-.2.1-.2.7-.2.7.1,0,.2,0,.2.2s-.1.2-.2.2-.2,0-.2-.2,0,0,0,0h0s0,0,0,0c0,0,0,0,0,0,0,.1,0,.2-.2.2s-.2,0-.2-.2,0-.2.1-.2h0s-.2-.5-.2-.6c0-.2.2-.4.4-.5.2,0,.6,0,.6,0,.1.3,0,.4,0,.4ZM43,26.4c0-.5-.2-.7-.9-.7-.4-.2-.8,0-.8,0,0,0,0,0,0,0,0,0,0,0,0,0s0,0,0-.1v-.4h.3v-.3h-.3v-.3h-.3v.3h-.3v.3h.3v.3s0,0,0,.1,0,0,0,0c0,0,0,0,0,0,0,0-.5-.2-.8,0-.7,0-.9.2-.9.7h-.2s0,.3,0,.3h.1c.1.2.3.4.4.6,0,.1,0,.4.2.4v.4s0,.2,0,.1c.1,0,.3,0,.5,0,0,0,.1,0,.2,0,.2,0,.3,0,.5,0h.3c.2,0,.3,0,.5,0,0,0,.1,0,.2,0,.2,0,.3,0,.5,0,0,0,.1-.1,0-.1v-.4c.3,0,.2-.3.2-.4,0-.3.2-.5.4-.6h.1v-.4h-.1Z"/>
        <path class="cls-1" d="M102.3,45.7c0,.6.2,1.6.9,1.8.5.2,1,.2,1.1.2s.1,0,.1,0c0,.1-.2.2-.4.2-.4,0-2.3,0-2.9,0-.4,0-.5,0-.5-.2s0-.1.1-.1c0,0,.1-.3,0-.6l-.8-9h0l-4.3,9.1c-.4.8-.4.9-.6.9s-.2-.2-.5-.8c-.5-.9-2-3.9-2-4-.2-.3-2.1-4.5-2.3-5h0l-.7,8.1c0,.3,0,.6,0,.9s.2.5.5.5c.3,0,.6,0,.7,0s.1,0,.1,0c0,.1-.1.2-.3.2-.6,0-1.5,0-1.6,0s-1,0-1.5,0-.3,0-.3-.2,0,0,.2,0c.1,0,.3,0,.5,0,.6-.1.6-.8.7-1.4l1.3-11.4c0-.2,0-.3.2-.3s.2,0,.3.3l5.3,11,5.1-10.9c0-.2.1-.3.3-.3s.2.1.2.5l1.2,10.7Z"/>
        <path class="cls-1" d="M108.6,43.7c0,1.4,0,2.6,0,3.2,0,.4.1.7.6.8.2,0,.6,0,.7,0s.1,0,.1.1,0,.1-.2.1c-.9,0-1.8,0-1.9,0s-1,0-1.5,0-.2,0-.2-.1,0-.1.1-.1c.1,0,.3,0,.5,0,.3,0,.3-.3.4-.8,0-.6,0-1.8,0-3.2v-2.6c0-2.3,0-2.7,0-3.2,0-.5-.2-.7-.5-.8-.2,0-.4,0-.5,0s-.1,0-.1-.1c0,0,0-.1.2-.1.5,0,1.5,0,1.6,0s1.1,0,1.5,0,.2,0,.2.1,0,.1-.1.1c-.1,0-.2,0-.4,0-.4,0-.5.3-.5.8,0,.5,0,.9,0,3.2v2.6Z"/>
        <path class="cls-1" d="M114.3,45.9c0,1.2.2,1.6.6,1.7.3,0,.6,0,.8,0s.1,0,.1.1-.1.1-.3.1c-.9,0-1.5,0-1.6,0s-.8,0-1.5,0-.2,0-.2-.1,0-.1.1-.1c.1,0,.4,0,.6,0,.4-.1.4-.5.4-1.8v-8.5c0-.6,0-.7.2-.7.2,0,.4.3.6.5.2.2,2.5,2.6,4.8,5.1,1.5,1.6,3.2,3.3,3.6,3.8l-.2-7.4c0-1-.1-1.3-.6-1.4-.3,0-.6,0-.7,0s-.1,0-.1-.1c0,0,.1-.1.3-.1.7,0,1.4,0,1.6,0s.7,0,1.3,0,.3,0,.3.1,0,.1-.2.1-.2,0-.4,0c-.5.1-.5.4-.5,1.3v8.7c0,1,0,1.1-.2,1.1-.2,0-.3-.1-1.2-.9-.2-.1-2.4-2.3-4-4-1.8-1.9-3.5-3.7-4-4.2l.2,7Z"/>
        <path class="cls-1" d="M129.2,43.7c0,1.4,0,2.6,0,3.2,0,.4.1.7.6.8.2,0,.6,0,.7,0s.1,0,.1.1,0,.1-.2.1c-.9,0-1.8,0-1.9,0s-1,0-1.5,0-.2,0-.2-.1,0-.1.1-.1c.1,0,.3,0,.5,0,.3,0,.3-.3.4-.8,0-.6,0-1.8,0-3.2v-2.6c0-2.3,0-2.7,0-3.2,0-.5-.2-.7-.5-.8-.2,0-.4,0-.5,0s-.1,0-.1-.1c0,0,0-.1.2-.1.5,0,1.5,0,1.6,0s1.1,0,1.5,0,.2,0,.2.1,0,.1-.1.1c-.1,0-.2,0-.4,0-.4,0-.5.3-.5.8,0,.5,0,.9,0,3.2v2.6Z"/>
        <path class="cls-1" d="M133.3,47.8c-.2-.1-.2-.2-.2-.6,0-.7,0-1.3,0-1.6,0-.2,0-.2.1-.2s.1,0,.1.2,0,.3,0,.5c.2,1.1,1.4,1.5,2.4,1.5,1.5,0,2.3-.9,2.3-2s-.6-1.6-1.9-2.6l-.7-.5c-1.7-1.2-2.2-2.1-2.2-3.2,0-1.7,1.4-2.8,3.4-2.8s1.2,0,1.6.2c.3,0,.4,0,.5,0s.2,0,.2.1,0,.6,0,1.6,0,.3-.1.3-.1,0-.1-.2c0-.2-.1-.6-.2-.7-.1-.2-.6-.7-2-.7s-2,.6-2,1.6.5,1.5,2,2.5l.4.3c1.9,1.3,2.5,2.3,2.5,3.6s-.3,1.8-1.4,2.5c-.6.4-1.6.5-2.4.5s-1.6-.1-2.2-.4"/>
        <path class="cls-1" d="M147.1,43.7c0,1.4,0,2.6,0,3.2,0,.4.1.7.6.8.2,0,.6,0,.7,0s.1,0,.1.1,0,.1-.2.1c-.8,0-1.8,0-1.9,0s-1.1,0-1.6,0-.2,0-.2-.1,0-.1.1-.1c.1,0,.3,0,.5,0,.3,0,.4-.4.5-.8,0-.6,0-1.8,0-3.2v-6.2h-2.2c-1,0-1.3.2-1.6.5-.2.3-.2.4-.2.5,0,.1,0,.1-.2.1s-.1,0-.1-.1c0-.2.3-1.5.3-1.6,0,0,.1-.3.2-.3.1,0,.3.1.7.2.4,0,1,0,1.2,0h5.8c.5,0,.9,0,1.1,0,.2,0,.4,0,.4,0s0,0,0,.2c0,.5,0,1.5,0,1.7s0,.2-.1.2-.1,0-.1-.3v-.2c0-.5-.4-.8-1.9-.8h-1.9s0,6.2,0,6.2Z"/>
        <path class="cls-1" d="M154.4,41c0-2.3,0-2.7,0-3.2,0-.5-.1-.7-.6-.8-.1,0-.4,0-.5,0s-.1,0-.1-.1c0,0,0-.1.2-.1.7,0,1.7,0,1.8,0s3.3,0,3.7,0c.3,0,.6,0,.7,0,0,0,.1,0,.2,0s0,0,0,.1c0,.1,0,.3-.1.7,0,.1,0,.8,0,1,0,0,0,.2-.1.2s-.1,0-.1-.2,0-.3,0-.5c-.1-.2-.3-.3-1.1-.5-.3,0-2,0-2.2,0s0,0,0,.2v4c0,.1,0,.2,0,.2.2,0,2.2,0,2.6,0,.4,0,.6,0,.7-.2.1-.1.2-.2.2-.2s0,0,0,.1,0,.3-.1.8c0,.3,0,.9,0,1s0,.3-.1.3-.1,0-.1-.1c0-.1,0-.3,0-.5,0-.2-.2-.4-.8-.5-.4,0-2.1,0-2.3,0s-.1,0-.1.1v1.2c0,.5,0,2.2,0,2.5,0,1,.3,1.2,1.8,1.2s1.1,0,1.5-.2c.4-.2.6-.4.7-1,0-.2,0-.2.2-.2s.1.1.1.2-.1,1.1-.2,1.4c-.1.4-.3.4-.9.4-1.2,0-2,0-2.7,0-.6,0-1,0-1.3,0s-.3,0-.7,0c-.3,0-.6,0-.9,0s-.2,0-.2-.1,0-.1.1-.1c.1,0,.3,0,.5,0,.3,0,.3-.3.4-.8,0-.6,0-1.8,0-3.2v-2.6Z"/>
        <path class="cls-1" d="M165.3,42.3h0c0,0,0,.1.1.2.2.1,1,.2,1.7.2s.8,0,1.1-.3c.5-.3.9-1.1.9-2.3,0-1.8-1-2.9-2.6-2.9s-.9,0-1.1,0c0,0-.1,0-.1.2v4.8ZM164,41c0-2.3,0-2.7,0-3.2,0-.5-.1-.7-.6-.8-.1,0-.4,0-.5,0s-.1,0-.1-.1c0,0,0-.1.2-.1.7,0,1.7,0,1.8,0,.2,0,1.4,0,1.9,0,1,0,2.1,0,2.9.6.4.3,1.1,1,1.1,2s-.5,2.2-1.9,3.4c1.3,1.6,2.3,2.9,3.2,3.8.8.8,1.3,1,1.7,1,.3,0,.5,0,.5,0s.1,0,.1.1c0,0,0,.1-.4.1h-1c-.9,0-1.3,0-1.6-.3-.7-.3-1.2-1.1-2.1-2.2-.6-.8-1.3-1.8-1.7-2.2,0,0-.1,0-.2,0h-2c0,0-.1,0-.1,0v.3c0,1.4,0,2.6,0,3.2,0,.4.1.7.6.8.2,0,.5,0,.7,0s.1,0,.1.1,0,.1-.2.1c-.8,0-1.8,0-1.9,0s-1,0-1.5,0-.2,0-.2-.1,0-.1.1-.1c.1,0,.3,0,.5,0,.3,0,.3-.3.4-.8,0-.6,0-1.8,0-3.2v-2.6Z"/>
        <path class="cls-1" d="M174.9,41c0-2.3,0-2.7,0-3.2,0-.5-.1-.7-.6-.8-.1,0-.4,0-.5,0s-.1,0-.1-.1c0,0,0-.1.2-.1.7,0,1.6,0,1.8,0s1.1,0,1.6,0,.3,0,.3.1,0,.1-.1.1c-.1,0-.2,0-.4,0-.4,0-.5.3-.5.8,0,.5,0,.9,0,3.2v2.1c0,2.1.5,3,1.1,3.6.7.7,1.4.8,2.3.8s1.8-.4,2.4-1c.7-.9.9-2.1.9-3.6v-1.9c0-2.3,0-2.7,0-3.2,0-.5-.1-.7-.6-.8-.1,0-.4,0-.5,0s-.1,0-.1-.1c0,0,0-.1.2-.1.7,0,1.6,0,1.7,0s.8,0,1.3,0,.2,0,.2.1,0,.1-.1.1c-.1,0-.2,0-.4,0-.4,0-.5.3-.5.8,0,.5,0,.9,0,3.2v1.6c0,1.6-.2,3.4-1.4,4.4-1.1,1-2.3,1.1-3.2,1.1s-2.1,0-3.2-1c-.7-.7-1.3-1.7-1.3-3.9v-2.2Z"/>
        <path class="cls-1" d="M189.8,43.7c0,2.2,0,3.1.3,3.3.2.2.8.3,2,.3s1.5,0,1.8-.5c.2-.2.3-.5.4-.8,0-.1,0-.2.2-.2s.1,0,.1.2-.1,1-.2,1.5c-.1.3-.2.4-1,.4s-2,0-2.7,0c-.7,0-1.2,0-1.7,0s-.3,0-.6,0c-.3,0-.6,0-.9,0s-.2,0-.2-.1,0-.1.1-.1c.1,0,.3,0,.5,0,.3,0,.3-.3.4-.8,0-.6,0-1.8,0-3.2v-2.6c0-2.3,0-2.7,0-3.2,0-.5-.1-.7-.6-.8-.1,0-.4,0-.5,0s-.1,0-.1-.1c0,0,0-.1.2-.1.7,0,1.7,0,1.7,0s1.2,0,1.7,0,.2,0,.2.1,0,.1-.1.1c-.1,0-.3,0-.5,0-.5,0-.5.3-.6.8,0,.5,0,.9,0,3.2v2.6Z"/>
        <path class="cls-1" d="M208.1,42.2h0c0,0,0,0,0-.1l-1.7-4.7c0-.3-.2-.3-.3,0l-1.5,4.7c0,0,0,.1,0,.1h3.3ZM206.3,35.2c.2-.6.3-.7.4-.7s.2,0,.4.6c.3.7,3,7.9,4.1,10.5.6,1.6,1.1,1.8,1.5,1.9.3,0,.5.1.7.1s.2,0,.2.1-.2.1-.3.1-1.5,0-2.7,0c-.3,0-.5,0-.5-.1s0-.1.1-.1c.1,0,.2-.2.1-.5l-1.6-4.3c0,0,0-.1-.2-.1h-3.7c0,0-.1,0-.2.1l-1,3.1c-.2.4-.2.9-.2,1.2s.4.5.7.5h.2c.1,0,.2,0,.2.1,0,.1-.1.1-.3.1-.4,0-1.2,0-1.4,0s-1.2,0-2,0-.3,0-.3-.1,0-.1.2-.1.4,0,.5,0c.8-.1,1.2-.8,1.5-1.6l4-10.8Z"/>
        <path class="cls-1" d="M215.6,41c0-2.3,0-2.7,0-3.2,0-.5-.1-.7-.6-.8-.1,0-.4,0-.5,0s-.1,0-.1-.1c0,0,0-.1.2-.1.7,0,1.7,0,1.7,0,.3,0,3.6,0,4,0,.3,0,.6,0,.7,0,0,0,.2,0,.2,0s.1,0,.1.1c0,.1,0,.3-.1.7,0,.1,0,.8,0,1,0,0,0,.2-.1.2s-.1,0-.1-.2,0-.4-.1-.6c0-.2-.5-.4-1-.4h-2.5c0,0-.1,0-.1.1v4c0,0,0,.1.1.1h2.1c.3,0,.5,0,.7,0,.4,0,.6,0,.7-.3,0,0,.1-.2.2-.2s0,0,0,.1-.1.3-.1.8c0,.3,0,.9,0,1s0,.3-.1.3-.1,0-.1-.1c0-.2,0-.4-.1-.5,0-.2-.3-.4-.8-.5-.4,0-2.2,0-2.5,0s-.1,0-.1.1v1.2c0,1.5,0,2.6,0,3.2,0,.4.1.7.6.8.2,0,.6,0,.7,0s.1,0,.1.1,0,.1-.2.1c-.9,0-1.8,0-1.9,0s-1,0-1.5,0-.2,0-.2-.1,0-.1.1-.1c.1,0,.3,0,.5,0,.3,0,.3-.3.4-.8,0-.6,0-1.8,0-3.2v-2.6Z"/>
        <path class="cls-1" d="M228.5,43.2h0c0,0,0,0,0-.1l-1.5-4.1c0-.2-.2-.2-.3,0l-1.4,4.1c0,0,0,.1,0,.1h3.1ZM226.8,37.1c.2-.5.3-.6.4-.6.2,0,.2.2.4.5.3.6,2.7,6.7,3.7,9,.6,1.3,1,1.5,1.3,1.6.2,0,.5,0,.6,0s.2,0,.2.1-.2.1-.3.1-1.4,0-2.4,0c-.3,0-.5,0-.5-.1s0,0,.1-.1c0,0,.2-.2.1-.4l-1.4-3.4c0,0,0,0-.1,0h-3.5c0,0-.1,0-.2.1l-.9,2.4c-.1.4-.2.7-.2,1s.3.4.5.4h.1c.1,0,.2,0,.2.1s0,.1-.2.1c-.4,0-1.2,0-1.4,0s-.9,0-1.6,0-.3,0-.3-.1,0-.1.1-.1c.1,0,.3,0,.5,0,.7,0,1-.6,1.3-1.4l3.6-9.3Z"/>
        <path class="cls-1" d="M235.5,46.6c-1.5-1.3-1.9-3-1.9-4.4s.4-2.7,1.7-4c.9-.9,2.3-1.6,4.7-1.6s1.5,0,2.2.2c.6.1,1.1.2,1.6.2.2,0,.2,0,.2.2s0,.3,0,.8c0,.5,0,1.3,0,1.5,0,.2,0,.3-.2.3s-.1-.1-.1-.3c0-.6-.2-1.2-.6-1.5-.5-.5-1.7-.8-3-.8-2,0-2.9.5-3.4,1-1.1,1-1.4,2.4-1.4,3.9,0,2.8,2.2,5.4,5.5,5.4s1.9,0,2.5-.7c.3-.3.5-1,.6-1.2,0-.2,0-.2.2-.2s.1.1.1.2-.2,1.4-.4,1.9c0,.3-.1.3-.4.4-.6.2-1.8.3-2.8.3-2.3,0-3.9-.5-5.1-1.6"/>
        <path class="cls-1" d="M247.7,41c0-2.3,0-2.7,0-3.2,0-.5-.1-.7-.6-.8-.1,0-.4,0-.5,0s-.1,0-.1-.1c0,0,0-.1.2-.1.7,0,1.7,0,1.8,0s3.3,0,3.7,0c.3,0,.6,0,.7,0,0,0,.1,0,.2,0s0,0,0,.1c0,.1,0,.3-.1.7,0,.1,0,.8,0,1,0,0,0,.2-.1.2s-.1,0-.1-.2,0-.3,0-.5c-.1-.2-.3-.3-1.1-.5-.3,0-2,0-2.2,0s0,0,0,.2v4c0,.1,0,.2,0,.2.2,0,2.2,0,2.6,0,.4,0,.6,0,.7-.2.1-.1.2-.2.2-.2s0,0,0,.1,0,.3-.1.8c0,.3,0,.9,0,1s0,.3-.1.3-.1,0-.1-.1c0-.1,0-.3,0-.5,0-.2-.2-.4-.8-.5-.4,0-2.1,0-2.3,0s-.1,0-.1.1v1.2c0,.5,0,2.2,0,2.5,0,1,.3,1.2,1.8,1.2s1.1,0,1.5-.2c.4-.2.6-.4.7-1,0-.2,0-.2.2-.2s.1.1.1.2-.1,1.1-.2,1.4c-.1.4-.3.4-.9.4-1.2,0-2,0-2.7,0-.6,0-1,0-1.3,0s-.3,0-.7,0c-.3,0-.6,0-.9,0s-.2,0-.2-.1,0-.1.1-.1c.1,0,.3,0,.5,0,.3,0,.3-.3.4-.8,0-.6,0-1.8,0-3.2v-2.6Z"/>
        <path class="cls-1" d="M258.6,42.3h0c0,0,0,.1.1.2.2.1,1,.2,1.7.2s.8,0,1.2-.3c.5-.3.9-1.1.9-2.3,0-1.8-1-2.9-2.6-2.9s-.9,0-1.1,0c0,0-.1,0-.1.2v4.8ZM257.3,41c0-2.3,0-2.7,0-3.2,0-.5-.1-.7-.6-.8-.1,0-.4,0-.5,0s-.1,0-.1-.1c0,0,0-.1.2-.1.7,0,1.7,0,1.8,0,.2,0,1.4,0,1.9,0,1,0,2.1,0,2.9.6.4.3,1.1,1,1.1,2s-.5,2.2-1.9,3.4c1.3,1.6,2.3,2.9,3.2,3.8.8.8,1.3,1,1.7,1,.3,0,.5,0,.5,0s.1,0,.1.1c0,0,0,.1-.4.1h-1c-.9,0-1.3,0-1.6-.3-.7-.3-1.2-1.1-2.1-2.2-.6-.8-1.3-1.8-1.7-2.2,0,0-.1,0-.2,0h-2c0,0-.1,0-.1,0v.3c0,1.4,0,2.6,0,3.2,0,.4.1.7.6.8.2,0,.5,0,.7,0s.1,0,.1.1,0,.1-.2.1c-.8,0-1.8,0-1.9,0s-1,0-1.5,0-.2,0-.2-.1,0-.1.1-.1c.1,0,.3,0,.5,0,.3,0,.3-.3.4-.8,0-.6,0-1.8,0-3.2v-2.6Z"/>
        <path class="cls-1" d="M270.4,43.7c0,1.4,0,2.6,0,3.2,0,.4.1.7.6.8.2,0,.6,0,.7,0s.1,0,.1.1,0,.1-.2.1c-.9,0-1.8,0-1.9,0s-1,0-1.5,0-.2,0-.2-.1,0-.1.1-.1c.1,0,.3,0,.5,0,.3,0,.3-.3.4-.8,0-.6,0-1.8,0-3.2v-2.6c0-2.3,0-2.7,0-3.2,0-.5-.2-.7-.5-.8-.2,0-.4,0-.5,0s-.1,0-.1-.1c0,0,0-.1.2-.1.5,0,1.5,0,1.6,0s1.1,0,1.5,0,.2,0,.2.1,0,.1-.1.1c-.1,0-.2,0-.4,0-.4,0-.5.3-.5.8,0,.5,0,.9,0,3.2v2.6Z"/>
        <path class="cls-1" d="M276.8,43.7c0,2.2,0,3.1.3,3.3.2.2.8.3,2,.3s1.5,0,1.8-.5c.2-.2.3-.5.4-.8,0-.1,0-.2.2-.2s.1,0,.1.2-.1,1-.2,1.5c-.1.3-.2.4-1,.4s-2,0-2.7,0c-.7,0-1.2,0-1.7,0s-.3,0-.6,0c-.3,0-.6,0-.9,0s-.2,0-.2-.1,0-.1.1-.1c.1,0,.3,0,.5,0,.3,0,.3-.3.4-.8,0-.6,0-1.8,0-3.2v-2.6c0-2.3,0-2.7,0-3.2,0-.5-.1-.7-.6-.8-.1,0-.4,0-.5,0s-.1,0-.1-.1c0,0,0-.1.2-.1.7,0,1.7,0,1.7,0s1.2,0,1.7,0,.2,0,.2.1,0,.1-.1.1c-.1,0-.3,0-.5,0-.5,0-.5.3-.6.8,0,.5,0,.9,0,3.2v2.6Z"/>
        <path class="cls-1" d="M289.1,47.5h0c1.4,0,4.1-.7,4.1-5s-2.2-5.4-4.6-5.4-4.4,1.6-4.4,4.8,2.1,5.6,4.8,5.6M288.7,36.6c3.5,0,6.1,2.1,6.1,5.6s-2.5,6-6.2,6-6-3.2-6-5.8,1.8-5.8,6.1-5.8Z"/>
        <path class="cls-1" d="M299.3,42.3h0c0,0,0,.1.1.2.2.1,1,.2,1.7.2s.8,0,1.2-.3c.5-.3.9-1.1.9-2.3,0-1.8-1-2.9-2.6-2.9s-.9,0-1.1,0c0,0-.1,0-.1.2v4.8ZM298,41c0-2.3,0-2.7,0-3.2,0-.5-.1-.7-.6-.8-.1,0-.4,0-.5,0s-.1,0-.1-.1c0,0,0-.1.2-.1.7,0,1.7,0,1.8,0,.2,0,1.4,0,1.9,0,1,0,2.1,0,2.9.6.4.3,1.1,1,1.1,2s-.5,2.2-1.9,3.4c1.3,1.6,2.3,2.9,3.2,3.8.8.8,1.3,1,1.7,1,.3,0,.5,0,.5,0s.1,0,.1.1c0,0,0,.1-.4.1h-1c-.9,0-1.3,0-1.6-.3-.7-.3-1.2-1.1-2.1-2.2-.6-.8-1.3-1.8-1.7-2.2,0,0-.1,0-.2,0h-2c0,0-.1,0-.1,0v.3c0,1.4,0,2.6,0,3.2,0,.4.1.7.6.8.2,0,.5,0,.7,0s.1,0,.1.1,0,.1-.2.1c-.8,0-1.8,0-1.9,0s-1,0-1.5,0-.2,0-.2-.1,0-.1.1-.1c.1,0,.3,0,.5,0,.3,0,.3-.3.4-.8,0-.6,0-1.8,0-3.2v-2.6Z"/>
        <path class="cls-1" d="M315.8,39.8c0-2.7,0-3.2,0-3.8,0-.6-.2-.9-.7-1-.1,0-.4,0-.6,0s-.1,0-.1-.1c0-.1,0-.1.3-.1.4,0,.9,0,1.3,0h.7c.1,0,3.6,0,4,0,.3,0,.6,0,.7,0,0,0,.2,0,.2,0s0,0,0,.2,0,.3-.1.8c0,.2,0,.9,0,1.1,0,0,0,.2-.1.2-.1,0-.1,0-.1-.2s0-.4-.1-.6c-.1-.3-.3-.5-1.2-.6-.3,0-2.2,0-2.4,0s-.1,0-.1.2v4.8c0,.1,0,.2.1.2.2,0,2.4,0,2.8,0,.4,0,.7,0,.8-.2.1-.1.2-.2.3-.2s0,0,0,.1,0,.4-.1,1c0,.3,0,1,0,1.1s0,.3-.1.3-.1,0-.1-.2c0-.2,0-.3,0-.6,0-.2-.2-.5-.9-.6-.5,0-2.2,0-2.5,0s-.1,0-.1.1v1.5c0,.6,0,2.6,0,3,0,1.2.3,1.4,2,1.4s1.2,0,1.7-.2c.5-.2.7-.5.8-1.3,0-.2,0-.3.2-.3s.1.1.1.3-.1,1.3-.2,1.7c-.1.5-.3.5-.9.5-1.3,0-2.3,0-2.9,0-.7,0-1.1,0-1.4,0s-.3,0-.7,0c-.3,0-.7,0-1,0s-.3,0-.3-.1,0-.1.1-.1c.2,0,.4,0,.5,0,.3,0,.4-.5.5-1,0-.7,0-2.1,0-3.8v-3.1Z"/>
        <path class="cls-1" d="M328.6,42.2l-2.4-4c-.3-.6-.6-1-1.2-1.2-.2,0-.6-.1-.6-.1s-.1,0-.1-.1,0-.1.3-.1c.4,0,1.7,0,1.8,0s1,0,1.5,0,.3,0,.3.1,0,.1-.1.1-.3,0-.4,0c-.1,0-.2.1-.2.2s0,.3.2.5c.6,1.2,1.2,2.2,2,3.5.5-.6,2.1-3.1,2.2-3.4.1-.2.2-.3.2-.5s-.1-.2-.3-.2c-.2,0-.3,0-.4,0s-.1,0-.1-.1,0-.1.3-.1c.6,0,1.2,0,1.4,0s.8,0,1.3,0,.2,0,.2.1,0,.1-.2.1-.3,0-.5,0c-.4.1-.7.5-1.2,1.2l-2.5,3.6c.3.5,2.9,4.8,3.2,5.2.2.3.4.5.9.6.2,0,.4,0,.5,0s.1,0,.1.1,0,.1-.2.1c-.9,0-1.7,0-2.5,0-.4,0-.5,0-.5-.1s0-.1,0-.1c0,0,.2-.2,0-.4-.8-1.4-1.7-2.9-2.6-4.4l-2.4,3.9c-.1.2-.2.5-.2.7s.1.2.2.2c0,0,.2,0,.3,0s.1,0,.1.1,0,.1-.2.1c-.4,0-1.4,0-1.5,0s-.9,0-1.4,0-.1,0-.1-.1,0-.1.1-.1.3,0,.6,0c.5-.1.8-.4,1.3-1.1l2.8-4.3Z"/>
        <path class="cls-1" d="M340.2,43.7c0,1.4,0,2.6,0,3.2,0,.4.1.7.6.8.2,0,.6,0,.7,0s.1,0,.1.1,0,.1-.2.1c-.8,0-1.8,0-1.9,0s-1.1,0-1.6,0-.2,0-.2-.1,0-.1.1-.1c.1,0,.3,0,.5,0,.3,0,.4-.4.5-.8,0-.6,0-1.8,0-3.2v-6.2h-2.2c-1,0-1.3.2-1.6.5-.2.3-.2.4-.2.5,0,.1,0,.1-.2.1s-.1,0-.1-.1c0-.2.3-1.5.3-1.6,0,0,.1-.3.2-.3.1,0,.3.1.7.2.4,0,1,0,1.2,0h5.8c.5,0,.9,0,1.1,0,.2,0,.4,0,.4,0s0,0,0,.2c0,.5,0,1.5,0,1.7s0,.2-.1.2-.1,0-.1-.3v-.2c0-.5-.4-.8-1.9-.8h-1.9s0,6.2,0,6.2Z"/>
        <path class="cls-1" d="M347.5,41c0-2.3,0-2.7,0-3.2,0-.5-.1-.7-.6-.8-.1,0-.4,0-.5,0s-.1,0-.1-.1c0,0,0-.1.2-.1.7,0,1.7,0,1.8,0s3.3,0,3.7,0c.3,0,.6,0,.7,0,0,0,.1,0,.2,0s0,0,0,.1c0,.1,0,.3-.1.7,0,.1,0,.8,0,1,0,0,0,.2-.1.2s-.1,0-.1-.2,0-.3,0-.5c-.1-.2-.3-.3-1.1-.5-.3,0-2,0-2.2,0s0,0,0,.2v4c0,.1,0,.2,0,.2.2,0,2.2,0,2.6,0,.4,0,.6,0,.7-.2.1-.1.2-.2.2-.2s0,0,0,.1,0,.3-.1.8c0,.3,0,.9,0,1s0,.3-.1.3-.1,0-.1-.1c0-.1,0-.3,0-.5,0-.2-.2-.4-.8-.5-.4,0-2.1,0-2.3,0s-.1,0-.1.1v1.2c0,.5,0,2.2,0,2.5,0,1,.3,1.2,1.8,1.2s1.1,0,1.5-.2c.4-.2.6-.4.7-1,0-.2,0-.2.2-.2s.1.1.1.2-.1,1.1-.2,1.4c-.1.4-.3.4-.9.4-1.2,0-2,0-2.7,0-.6,0-1,0-1.3,0s-.3,0-.7,0c-.3,0-.6,0-.9,0s-.2,0-.2-.1,0-.1.1-.1c.1,0,.3,0,.5,0,.3,0,.3-.3.4-.8,0-.6,0-1.8,0-3.2v-2.6Z"/>
        <path class="cls-1" d="M358.5,42.3h0c0,0,0,.1.1.2.2.1,1,.2,1.7.2s.8,0,1.1-.3c.5-.3.9-1.1.9-2.3,0-1.8-1-2.9-2.6-2.9s-.9,0-1.1,0c0,0-.1,0-.1.2v4.8ZM357.1,41c0-2.3,0-2.7,0-3.2,0-.5-.1-.7-.6-.8-.1,0-.4,0-.5,0s-.1,0-.1-.1c0,0,0-.1.2-.1.7,0,1.7,0,1.8,0,.2,0,1.4,0,1.9,0,1,0,2.1,0,2.9.6.4.3,1.1,1,1.1,2s-.5,2.2-1.9,3.4c1.3,1.6,2.3,2.9,3.2,3.8.8.8,1.3,1,1.7,1,.3,0,.5,0,.5,0s.1,0,.1.1c0,0,0,.1-.4.1h-1c-.9,0-1.3,0-1.6-.3-.7-.3-1.2-1.1-2.1-2.2-.6-.8-1.3-1.8-1.7-2.2,0,0-.1,0-.2,0h-2c0,0-.1,0-.1,0v.3c0,1.4,0,2.6,0,3.2,0,.4.1.7.6.8.2,0,.5,0,.7,0s.1,0,.1.1,0,.1-.2.1c-.8,0-1.8,0-1.9,0s-1,0-1.5,0-.2,0-.2-.1,0-.1.1-.1c.1,0,.3,0,.5,0,.3,0,.3-.3.4-.8,0-.6,0-1.8,0-3.2v-2.6Z"/>
        <path class="cls-1" d="M369.5,45.9c0,1.2.2,1.6.6,1.7.3,0,.6,0,.8,0s.1,0,.1.1-.1.1-.3.1c-.9,0-1.5,0-1.6,0s-.8,0-1.5,0-.2,0-.2-.1,0-.1.1-.1c.1,0,.4,0,.6,0,.4-.1.4-.5.4-1.8v-8.5c0-.6,0-.7.2-.7.2,0,.4.3.6.5.2.2,2.5,2.6,4.8,5.1,1.5,1.6,3.2,3.3,3.6,3.8l-.2-7.4c0-1-.1-1.3-.6-1.4-.3,0-.6,0-.7,0s-.1,0-.1-.1c0,0,.1-.1.3-.1.7,0,1.4,0,1.6,0s.7,0,1.3,0,.3,0,.3.1,0,.1-.2.1-.2,0-.4,0c-.5.1-.5.4-.5,1.3v8.7c0,1,0,1.1-.2,1.1-.2,0-.3-.1-1.2-.9-.2-.1-2.4-2.3-4-4-1.8-1.9-3.5-3.7-4-4.2l.2,7Z"/>
        <path class="cls-1" d="M383,41c0-2.3,0-2.7,0-3.2,0-.5-.1-.7-.6-.8-.1,0-.4,0-.5,0s-.1,0-.1-.1c0,0,0-.1.2-.1.7,0,1.7,0,1.8,0s3.3,0,3.7,0c.3,0,.6,0,.7,0,0,0,.1,0,.2,0s0,0,0,.1c0,.1,0,.3-.1.7,0,.1,0,.8,0,1,0,0,0,.2-.1.2s-.1,0-.1-.2,0-.3,0-.5c-.1-.2-.3-.3-1.1-.5-.3,0-2,0-2.2,0s0,0,0,.2v4c0,.1,0,.2,0,.2.2,0,2.2,0,2.6,0,.4,0,.6,0,.7-.2.1-.1.2-.2.2-.2s0,0,0,.1,0,.3-.1.8c0,.3,0,.9,0,1s0,.3-.1.3-.1,0-.1-.1c0-.1,0-.3,0-.5,0-.2-.2-.4-.8-.5-.4,0-2.1,0-2.3,0s-.1,0-.1.1v1.2c0,.5,0,2.2,0,2.5,0,1,.3,1.2,1.8,1.2s1.1,0,1.5-.2c.4-.2.6-.4.7-1,0-.2,0-.2.2-.2s.1.1.1.2-.1,1.1-.2,1.4c-.1.4-.3.4-.9.4-1.2,0-2,0-2.7,0-.6,0-1,0-1.3,0s-.3,0-.7,0c-.3,0-.6,0-.9,0s-.2,0-.2-.1,0-.1.1-.1c.1,0,.3,0,.5,0,.3,0,.3-.3.4-.8,0-.6,0-1.8,0-3.2v-2.6Z"/>
      </g>
    </g>
  </g>
</svg>