<?xml version="1.0" encoding="UTF-8"?>
<svg id="Layer_1" data-name="Layer 1" xmlns="http://www.w3.org/2000/svg" version="1.1" viewBox="0 0 680.3 198.4">
  <defs>
    <style>
      .cls-1 {
        fill: #fed20d;
      }

      .cls-1, .cls-2 {
        stroke-width: 0px;
      }

      .cls-2 {
        fill: #fff;
      }
    </style>
  </defs>
  <g>
    <path class="cls-1" d="M356.6,49.3l-12.5,34.2h-6.7l-12.6-34.2h9l7,21.2,6.9-21.2h9Z"/>
    <path class="cls-1" d="M391.8,66.4c0,3.3-.3,5.9-.8,8-.5,2-1.6,3.8-3.1,5.4-2.6,2.8-6.2,4.2-10.6,4.2s-7.9-1.4-10.6-4.2c-1.5-1.5-2.5-3.3-3.1-5.4-.5-2-.8-4.7-.8-8s.3-5.9.8-7.9c.5-2,1.6-3.8,3.1-5.4,2.6-2.8,6.2-4.2,10.6-4.2s8,1.4,10.6,4.2c1.5,1.5,2.5,3.3,3.1,5.4.5,2,.8,4.7.8,7.9ZM383.2,66.4c0-4.2-.7-7-2-8.3-1-1-2.3-1.5-4-1.5s-2.9.5-3.9,1.5c-1.3,1.3-2,4.1-2,8.3s.7,7,2,8.3c1,1,2.3,1.5,3.9,1.5s3-.5,4-1.5,2-4.1,2-8.3Z"/>
    <path class="cls-1" d="M418.6,83.5h-4.7c-3.2,0-5.7-1-7.4-2.9-1.7-1.9-2.5-4.2-2.5-6.9v-16.9h-3.6v-6.5h3.6v-10.1h8.5v10.1h6v6.5h-6v16.4c0,2.1,1,3.1,3,3.1h3.1v7.2Z"/>
    <path class="cls-1" d="M363.6,125.3c0,5.9-.3,10-.9,12.4-.7,3-2,5.4-3.7,7.2-2.9,2.9-6.8,4.3-11.8,4.3h-16v-46.8h16c5,0,8.9,1.4,11.8,4.3.9.9,1.7,2,2.3,3.3.6,1.3,1.1,2.4,1.4,3.3.3.9.5,2.3.7,4.1.2,1.9.2,3.1.2,3.6v4.1ZM358.7,125.3c0-2.7,0-4.7,0-5.9,0-1.2-.3-2.8-.8-4.7-.5-1.9-1.2-3.3-2.2-4.4-2.2-2.3-5.3-3.4-9.2-3.4h-10.2v37.8h10.2c3.9,0,7-1.1,9.2-3.4,1-1.1,1.8-2.6,2.2-4.7.5-2.1.7-3.8.8-5.1,0-1.3,0-3.4,0-6.3Z"/>
    <path class="cls-1" d="M383.7,149.2h-5v-46.8h5v46.8Z"/>
    <path class="cls-1" d="M433.1,149.2h-5.3l-3.7-10.6h-20.4l-3.7,10.6h-5.3l17.2-46.8h4.2l17.1,46.8ZM422.6,134.3l-8.7-24.7-8.8,24.7h17.5Z"/>
    <path class="cls-1" d="M472.1,136.3c0,4.1-1.5,7.3-4.4,9.7-2.9,2.4-6.9,3.6-11.8,3.6s-6.5-.5-9-1.4c-2.5-1-4.8-2.5-7-4.7l3.4-3.4c1.9,1.9,3.8,3.2,5.7,4,1.9.8,4.3,1.1,7,1.1s6.1-.8,8.1-2.3,3-3.7,3-6.4-.7-4.5-2.2-5.8c-.7-.7-1.5-1.1-2.3-1.4-.8-.3-2.1-.6-3.8-.8l-5.5-.9c-3.7-.6-6.6-1.8-8.6-3.5-2.4-2.1-3.5-5-3.5-8.7s1.3-7.2,4-9.6c2.7-2.4,6.3-3.6,10.9-3.6s5.5.4,7.7,1.2c2.1.8,4.2,2.1,6.2,3.9l-3.2,3.2c-2.9-2.7-6.6-4-10.9-4s-5.5.8-7.2,2.4c-1.8,1.6-2.6,3.7-2.6,6.3s.7,4.2,2.1,5.4c1.4,1.3,3.5,2.1,6.3,2.6l5.1.8c3.8.6,6.7,1.7,8.5,3.3,2.6,2.2,3.9,5.3,3.9,9.3Z"/>
    <path class="cls-1" d="M513.7,106.2c2.7,2.5,4,5.8,4,10s-1.3,7.5-4,10c-2.7,2.5-6.2,3.8-10.4,3.8h-12.4v19.2h-5v-46.8h17.4c4.3,0,7.8,1.2,10.4,3.7ZM510,123.1c1.8-1.6,2.7-3.9,2.7-6.9s-.9-5.3-2.7-6.9c-1.8-1.6-4.2-2.4-7.2-2.4h-12v18.6h12c3,0,5.4-.8,7.2-2.4Z"/>
    <path class="cls-1" d="M560.7,113.6c.5,2.4.7,6.5.7,12.3s-.2,9.8-.7,12.3-1.7,4.7-3.7,6.7c-3.2,3.2-7.2,4.9-12,4.9s-8.7-1.6-12-4.9c-2-2-3.3-4.2-3.7-6.7s-.7-6.5-.7-12.3.2-9.8.7-12.3,1.7-4.7,3.7-6.7c3.2-3.2,7.2-4.9,12-4.9s8.7,1.6,12,4.9c2,2,3.3,4.2,3.7,6.7ZM555.8,136.6c.4-2,.6-5.6.6-10.7s-.2-8.7-.6-10.7c-.4-2-1.3-3.8-2.7-5.2-2.1-2.2-4.8-3.3-8.1-3.3s-5.9,1.1-8.1,3.3c-1.4,1.4-2.3,3.2-2.7,5.2-.4,2-.6,5.6-.6,10.7s.2,8.7.6,10.7c.4,2,1.3,3.8,2.7,5.2,2.1,2.2,4.8,3.4,8.1,3.4s5.9-1.1,8.1-3.4c1.4-1.4,2.3-3.2,2.7-5.2Z"/>
    <path class="cls-1" d="M609.2,149.2h-5.8l-10.6-20.8h-11.2v20.8h-5v-46.8h17.9c4.1,0,7.5,1.2,10,3.5,2.6,2.3,3.8,5.5,3.8,9.5s-.9,6.1-2.8,8.3c-1.8,2.2-4.3,3.6-7.4,4.3l11.1,21.2ZM600.7,121.8c1.7-1.5,2.5-3.6,2.5-6.3s-.9-4.9-2.6-6.4c-1.7-1.5-4-2.2-6.8-2.2h-12.5v17.1h12.5c2.8,0,5.1-.7,6.8-2.2Z"/>
    <path class="cls-1" d="M655.4,149.2h-5.3l-3.7-10.6h-20.4l-3.7,10.6h-5.3l17.2-46.8h4.2l17.1,46.8ZM644.9,134.3l-8.7-24.7-8.8,24.7h17.5Z"/>
  </g>
  <path class="cls-2" d="M295.9,177H119.2L207.5,24l88.3,153ZM139.4,165.3h136.3l-68.2-118.1-68.2,118.1Z"/>
  <path class="cls-1" d="M102.3,176.2L14,23.2h176.7l-88.3,153ZM34.2,34.8l68.2,118.1,68.2-118.1H34.2Z"/>
</svg>