<svg version="1.1" xmlns="http://www.w3.org/2000/svg" xmlns:xlink="http://www.w3.org/1999/xlink" x="0px" y="0px" width="48" height="48" viewBox="0 0 86.68 100" style="enable-background:new 0 0 86.68 100;" xml:space="preserve"><style type="text/css">.st0{fill:#342245;}.st1{fill:#E9BF1E;}</style><path class="st0" d="M43.34,0C19.44,0,0,18.66,0,41.59c0,31.12,39.77,56.79,41.46,57.86c0.57,0.37,1.23,0.55,1.88,0.55 c0.65,0,1.31-0.18,1.88-0.55c1.69-1.08,41.46-26.74,41.46-57.86C86.68,18.66,67.24,0,43.34,0z"/><g><path class="st1" d="M69.61,32.67c-0.2-0.49-0.6-0.89-1.09-1.09L34.01,17.28c-1.03-0.43-2.21,0.06-2.64,1.09L17.07,52.88 c-0.21,0.49-0.21,1.05,0,1.54c0.2,0.49,0.6,0.89,1.09,1.09l23.17,9.6c0.25,0.1,0.51,0.15,0.77,0.15c0.26,0,0.53-0.05,0.77-0.15 l16.03-6.64c0.49-0.2,0.89-0.6,1.09-1.09l9.6-23.17C69.81,33.72,69.81,33.16,69.61,32.67z M45.84,59.52l2.06-4.97l4.97,2.06 L45.84,59.52z M57.05,53.97l-9.47-3.92c-1.03-0.43-2.21,0.06-2.64,1.09l-3.92,9.47l-19.45-8.05l12.75-30.78l30.78,12.75 L57.05,53.97z"/><polygon class="st1" points="52.82,41.16 51.27,37.44 40.94,41.72 39.18,37.48 35.45,39.03 38.75,46.99 	"/></g></svg>