<svg enable-background="new 0 0 86.68 100" height="48" viewBox="0 0 86.68 100" width="48" xmlns="http://www.w3.org/2000/svg"><path d="m43.34 0c-23.9 0-43.34 18.66-43.34 41.59 0 31.12 39.77 56.79 41.46 57.86.57.37 1.23.55 1.88.55s1.31-.18 1.88-.55c1.69-1.08 41.46-26.74 41.46-57.86 0-22.93-19.44-41.59-43.34-41.59z" fill="#342245"/><g fill="#e9bf1e"><path d="m69.61 32.67c-.2-.49-.6-.89-1.09-1.09l-34.51-14.3c-1.03-.43-2.21.06-2.64 1.09l-14.3 34.51c-.21.49-.21 1.05 0 1.54.2.49.6.89 1.09 1.09l23.17 9.6c.25.1.51.15.77.15s.53-.05.77-.15l16.03-6.64c.49-.2.89-.6 1.09-1.09l9.6-23.17c.22-.49.22-1.05.02-1.54zm-23.77 26.85 2.06-4.97 4.97 2.06zm11.21-5.55-9.47-3.92c-1.03-.43-2.21.06-2.64 1.09l-3.92 9.47-19.45-8.05 12.75-30.78 30.78 12.75z"/><path d="m52.82 41.16-1.55-3.72-10.33 4.28-1.76-4.24-3.73 1.55 3.3 7.96z"/></g></svg>